<svg width="92" height="96" viewBox="0 0 92 96" fill="none" xmlns="http://www.w3.org/2000/svg">
<path d="M45.97 3.49C21.44 3.49 1.48999 23.44 1.48999 47.97C1.48999 72.5 21.44 92.45 45.97 92.45C70.5 92.45 90.45 72.5 90.45 47.97C90.45 23.44 70.51 3.49 45.97 3.49ZM45.97 93.94C20.69 93.94 0 73.37 0 47.97C0 22.57 20.57 2 45.97 2C71.37 2 91.94 22.57 91.94 47.97C91.94 73.37 71.25 93.94 45.97 93.94Z" fill="white"/>
<mask id="path-2-inside-1_75_263" fill="white">
<path d="M55.2697 37.19H27.7597C25.1597 37.19 23.1797 35.08 23.1797 32.61C23.1797 30.01 25.2897 28.03 27.7597 28.03H55.2697"/>
</mask>
<path d="M55.2697 34.19H27.7597V40.19H55.2697V34.19ZM27.7597 34.19C26.8718 34.19 26.1797 33.4789 26.1797 32.61H20.1797C20.1797 36.6811 23.4476 40.19 27.7597 40.19V34.19ZM26.1797 32.61C26.1797 31.7221 26.8908 31.03 27.7597 31.03V25.03C23.6886 25.03 20.1797 28.2979 20.1797 32.61H26.1797ZM27.7597 31.03H55.2697V25.03H27.7597V31.03Z" fill="white" mask="url(#path-2-inside-1_75_263)"/>
<mask id="path-4-inside-2_75_263" fill="white">
<path d="M55.2697 52.56H27.7597C25.1597 52.56 23.1797 50.45 23.1797 47.98C23.1797 45.38 25.2897 43.4 27.7597 43.4H55.2697"/>
</mask>
<path d="M55.2697 49.56H27.7597V55.56H55.2697V49.56ZM27.7597 49.56C26.8718 49.56 26.1797 48.8489 26.1797 47.98H20.1797C20.1797 52.0511 23.4476 55.56 27.7597 55.56V49.56ZM26.1797 47.98C26.1797 47.0921 26.8908 46.4 27.7597 46.4V40.4C23.6886 40.4 20.1797 43.6679 20.1797 47.98H26.1797ZM27.7597 46.4H55.2697V40.4H27.7597V46.4Z" fill="white" mask="url(#path-4-inside-2_75_263)"/>
<mask id="path-6-inside-3_75_263" fill="white">
<path d="M55.2697 67.92H27.7597C25.1597 67.92 23.1797 65.81 23.1797 63.34C23.1797 60.74 25.2897 58.76 27.7597 58.76H55.2697"/>
</mask>
<path d="M55.2697 64.92H27.7597V70.92H55.2697V64.92ZM27.7597 64.92C26.8718 64.92 26.1797 64.2089 26.1797 63.34H20.1797C20.1797 67.4111 23.4476 70.92 27.7597 70.92V64.92ZM26.1797 63.34C26.1797 62.4521 26.8908 61.76 27.7597 61.76V55.76C23.6886 55.76 20.1797 59.0279 20.1797 63.34H26.1797ZM27.7597 61.76H55.2697V55.76H27.7597V61.76Z" fill="white" mask="url(#path-6-inside-3_75_263)"/>
<path d="M67.1405 32.61C67.1405 34.3116 65.7621 35.69 64.0605 35.69C62.3589 35.69 60.9805 34.3116 60.9805 32.61C60.9805 30.9084 62.3589 29.53 64.0605 29.53C65.7621 29.53 67.1405 30.9084 67.1405 32.61Z" stroke="white" stroke-width="3"/>
<path d="M67.1405 47.98C67.1405 49.6816 65.7621 51.06 64.0605 51.06C62.361 51.06 60.9805 49.6737 60.9805 47.98C60.9805 46.2784 62.3589 44.9 64.0605 44.9C65.7621 44.9 67.1405 46.2784 67.1405 47.98Z" stroke="white" stroke-width="3"/>
<path d="M67.1405 63.34C67.1405 65.0416 65.7621 66.42 64.0605 66.42C62.3589 66.42 60.9805 65.0416 60.9805 63.34C60.9805 61.6384 62.3589 60.26 64.0605 60.26C65.7621 60.26 67.1405 61.6384 67.1405 63.34Z" stroke="white" stroke-width="3"/>
</svg>
