<svg width="39" height="22" viewBox="0 0 39 22" fill="none" xmlns="http://www.w3.org/2000/svg">
<path d="M27.457 21.9999C27.7148 21.9999 27.9583 21.8854 28.1874 21.6562L38.1562 11.6875C38.3853 11.5156 38.4999 11.2864 38.4999 11C38.4999 10.7135 38.3853 10.4844 38.1562 10.3125L28.1874 0.343749C27.9583 0.114583 27.7148 0 27.457 0C27.1992 0 26.9557 0.114583 26.7265 0.343749L26.1249 0.94531C25.8958 1.11718 25.7812 1.34635 25.7812 1.63281C25.7812 1.91927 25.8958 2.17708 26.1249 2.40624L33.3437 9.53904H1.03125C0.74479 9.53904 0.5013 9.6393 0.300781 9.83982C0.100261 10.0403 0 10.2838 0 10.5703V11.4297C0 11.7161 0.100261 11.9596 0.300781 12.1601C0.5013 12.3606 0.74479 12.4609 1.03125 12.4609H33.3437L26.1249 19.5937C25.8958 19.8229 25.7812 20.0807 25.7812 20.3671C25.7812 20.6536 25.8958 20.8828 26.1249 21.0546L26.7265 21.6562C26.9557 21.8854 27.1992 21.9999 27.457 21.9999Z" fill="black"/>
</svg>
