<svg width="98" height="97" viewBox="0 0 98 97" fill="none" xmlns="http://www.w3.org/2000/svg">
<path fill-rule="evenodd" clip-rule="evenodd" d="M48.9999 96.9373C57.7238 96.9373 65.7967 94.7563 73.2186 90.3943C80.6404 86.0323 86.5323 80.1404 90.8943 72.7186C95.2563 65.2967 97.4373 57.2238 97.4373 48.4999C97.4373 39.7759 95.2563 31.7031 90.8943 24.2812C86.5323 16.8593 80.6404 10.9674 73.2186 6.60545C65.7967 2.24349 57.7238 0.0625 48.9999 0.0625C40.2759 0.0625 32.2031 2.24349 24.7812 6.60545C17.3593 10.9674 11.4674 16.8593 7.10545 24.2812C2.74349 31.7031 0.5625 39.7759 0.5625 48.4999C0.5625 57.2238 2.74349 65.2967 7.10545 72.7186C11.4674 80.1404 17.3593 86.0323 24.7812 90.3943C32.2031 94.7563 40.2759 96.9373 48.9999 96.9373ZM48.9999 90.6873C41.4478 90.6873 34.4166 88.7993 27.9062 85.0232C21.3958 81.2472 16.2526 76.1365 12.4765 69.6912C8.7005 63.2459 6.81249 56.2147 6.81249 48.5975C6.81249 40.9804 8.7005 33.9166 12.4765 27.4062C16.2526 20.8958 21.3632 15.7526 27.8085 11.9765C34.2538 8.2005 41.2851 6.31249 48.9022 6.31249C56.5194 6.31249 63.5832 8.2005 70.0936 11.9765C76.604 15.7526 81.7472 20.8632 85.5232 27.3085C89.2993 33.7538 91.1873 40.7851 91.1873 48.4022C91.1873 56.0194 89.2993 63.0832 85.5232 69.5936C81.7472 76.104 76.6365 81.2472 70.1912 85.0232C63.7459 88.7993 56.6822 90.6873 48.9999 90.6873ZM41.3827 71.9373C40.9921 72.4582 40.4713 72.7186 39.8202 72.7186C39.1692 72.7186 38.5832 72.4582 38.0624 71.9373L21.2656 54.9452C20.875 54.5546 20.6796 54.0337 20.6796 53.3827C20.6796 52.7316 20.875 52.1457 21.2656 51.6249L23.0234 50.0624C23.414 49.6718 23.9348 49.4764 24.5859 49.4764C25.2369 49.4764 25.8229 49.6718 26.3437 50.0624L39.8202 63.7342L71.6561 31.8984C72.1769 31.5077 72.7628 31.3124 73.4139 31.3124C74.0649 31.3124 74.5858 31.5728 74.9764 32.0937L76.7342 33.6562C77.1248 34.177 77.3201 34.7629 77.3201 35.414C77.3201 36.065 77.1248 36.5858 76.7342 36.9765L41.3827 71.9373Z" fill="#CC413C"/>
</svg>
