<svg width="14" height="9" viewBox="0 0 14 9" fill="none" xmlns="http://www.w3.org/2000/svg">
<path d="M6.71094 8.92578C6.90971 8.92578 7.07867 8.84544 7.21782 8.68476L13.0022 2.83992C13.1414 2.69932 13.2109 2.52859 13.2109 2.32774C13.2109 2.12689 13.1414 1.95616 13.0022 1.81556L12.3463 1.15275C12.2071 1.01215 12.0382 0.936828 11.8394 0.926785C11.6406 0.916743 11.4716 0.98202 11.3325 1.12262L6.71094 5.79246L2.08938 1.12262C1.95023 0.98202 1.78127 0.916743 1.5825 0.926785C1.38372 0.936828 1.21476 1.01215 1.07562 1.15275L0.419653 1.81556C0.280509 1.95616 0.210938 2.12689 0.210938 2.32774C0.210938 2.52859 0.280509 2.69932 0.419653 2.83992L6.20406 8.68476C6.3432 8.84544 6.51216 8.92578 6.71094 8.92578Z" fill="black"/>
</svg>
