<svg width="40" height="70" viewBox="0 0 40 70" fill="none" xmlns="http://www.w3.org/2000/svg">
<path d="M5.03937 70C5.5643 70 6.03674 69.8416 6.45669 69.5249L39.3701 36.267C39.79 35.9502 40 35.5279 40 35C40 34.4721 39.79 34.0498 39.3701 33.733L6.45669 0.475113C6.03674 0.158371 5.5643 0 5.03937 0C4.51444 0 4.09449 0.158371 3.77953 0.475113L0.629921 3.64253C0.209973 3.95928 0 4.3816 0 4.9095C0 5.4374 0.209973 5.91252 0.629921 6.33484L29.1339 35L0.629921 63.6652C0.209973 64.0875 0 64.5626 0 65.0905C0 65.6184 0.209973 66.0407 0.629921 66.3575L3.77953 69.5249C4.09449 69.8416 4.51444 70 5.03937 70Z" fill="black"/>
</svg>
