<svg width="40" height="70" viewBox="0 0 40 70" fill="none" xmlns="http://www.w3.org/2000/svg">
<path d="M34.9606 70C34.4357 70 33.9633 69.8416 33.5433 69.5249L0.629921 36.267C0.209972 35.9502 0 35.5279 0 35C0 34.4721 0.209972 34.0498 0.629921 33.733L33.5433 0.475113C33.9633 0.158371 34.4357 0 34.9606 0C35.4856 0 35.9055 0.158371 36.2205 0.475113L39.3701 3.64253C39.79 3.95928 40 4.3816 40 4.9095C40 5.4374 39.79 5.91252 39.3701 6.33484L10.8661 35L39.3701 63.6652C39.79 64.0875 40 64.5626 40 65.0905C40 65.6184 39.79 66.0407 39.3701 66.3575L36.2205 69.5249C35.9055 69.8416 35.4856 70 34.9606 70Z" fill="white"/>
</svg>
