<svg width="40" height="39" viewBox="0 0 40 39" fill="none" xmlns="http://www.w3.org/2000/svg">
<path d="M39.375 19.625C39.375 9 30.625 0.25 20 0.25C9.29688 0.25 0.625 9 0.625 19.625C0.625 30.3281 9.29688 39 20 39C30.625 39 39.375 30.3281 39.375 19.625ZM17.7344 29.9375C17.2656 30.4062 16.4062 30.4062 15.9375 29.9375L7.8125 21.8125C7.34375 21.3438 7.34375 20.4844 7.8125 20.0156L9.60938 18.2969C10.0781 17.75 10.8594 17.75 11.3281 18.2969L16.875 23.7656L28.5938 12.0469C29.0625 11.5 29.8438 11.5 30.3125 12.0469L32.1094 13.7656C32.5781 14.2344 32.5781 15.0938 32.1094 15.5625L17.7344 29.9375Z" fill="black"/>
</svg>
