<svg width="44" height="44" viewBox="0 0 44 44" fill="none" xmlns="http://www.w3.org/2000/svg">
<path d="M41.1215 4.52766L42.1889 5.58154L43.2427 4.51413L42.1753 3.46026L41.1215 4.52766ZM40.0676 5.59507L41.135 6.64894L40.0676 5.59507ZM38.9866 2.41992L40.0405 1.35252L38.9731 0.298645L37.9192 1.36605L38.9866 2.41992ZM37.9328 3.48733L39.0002 4.5412V4.5412L37.9328 3.48733ZM22.0002 19.6245L20.9328 20.6784L22.0002 21.7595L23.0676 20.6784L22.0002 19.6245ZM6.06759 3.48733L5.00018 4.5412V4.5412L6.06759 3.48733ZM5.01372 2.41992L6.08112 1.36605L5.02725 0.298645L3.95985 1.35252L5.01372 2.41992ZM2.87891 4.52766L1.82504 3.46026L0.757629 4.51413L1.8115 5.58154L2.87891 4.52766ZM3.93278 5.59507L2.86537 6.64894L3.93278 5.59507ZM19.8923 21.7595L20.9597 22.8134L22.0002 21.7595L20.9597 20.7057L19.8923 21.7595ZM3.93278 37.924L5.00018 38.9779L3.93278 37.924ZM2.87891 38.9914L1.8115 37.9375L0.75763 39.0049L1.82503 40.0588L2.87891 38.9914ZM5.01372 41.0991L3.95985 42.1665L5.02725 43.2204L6.08112 42.153L5.01372 41.0991ZM6.06759 40.0317L7.13499 41.0856L6.06759 40.0317ZM22.0002 23.8945L23.0676 22.8406L22.0002 21.7595L20.9328 22.8406L22.0002 23.8945ZM37.9328 40.0317L36.8654 41.0856L37.9328 40.0317ZM38.9866 41.0991L37.9192 42.153L38.9731 43.2204L40.0405 42.1665L38.9866 41.0991ZM41.1215 38.9914L42.1753 40.0588L43.2427 39.0049L42.1889 37.9375L41.1215 38.9914ZM40.0676 37.924L39.0002 38.9779L40.0676 37.924ZM24.1081 21.7595L23.0407 20.7057L22.0002 21.7595L23.0407 22.8134L24.1081 21.7595ZM40.0541 3.47379L39.0002 4.5412L41.135 6.64894L42.1889 5.58154L40.0541 3.47379ZM37.9328 3.48733L40.0676 5.59507L42.1753 3.46026L40.0405 1.35252L37.9328 3.48733ZM39.0002 4.5412L40.0541 3.47379L37.9192 1.36605L36.8654 2.43346L39.0002 4.5412ZM23.0676 20.6784L39.0002 4.5412L36.8654 2.43346L20.9328 18.5707L23.0676 20.6784ZM23.0676 18.5707L7.13499 2.43346L5.00018 4.5412L20.9328 20.6784L23.0676 18.5707ZM7.13499 2.43346L6.08112 1.36605L3.94631 3.47379L5.00018 4.5412L7.13499 2.43346ZM3.95985 1.35252L1.82504 3.46026L3.93278 5.59507L6.06759 3.48733L3.95985 1.35252ZM1.8115 5.58154L2.86537 6.64894L5.00018 4.5412L3.94631 3.47379L1.8115 5.58154ZM2.86537 6.64894L18.8249 22.8134L20.9597 20.7057L5.00018 4.5412L2.86537 6.64894ZM5.00018 38.9779L20.9597 22.8134L18.8249 20.7057L2.86537 36.8701L5.00018 38.9779ZM3.94631 40.0453L5.00018 38.9779L2.86537 36.8701L1.8115 37.9375L3.94631 40.0453ZM6.06759 40.0317L3.93278 37.924L1.82503 40.0588L3.95985 42.1665L6.06759 40.0317ZM5.00018 38.9779L3.94631 40.0453L6.08112 42.153L7.13499 41.0856L5.00018 38.9779ZM20.9328 22.8406L5.00018 38.9779L7.13499 41.0856L23.0676 24.9484L20.9328 22.8406ZM20.9328 24.9484L36.8654 41.0856L39.0002 38.9779L23.0676 22.8406L20.9328 24.9484ZM36.8654 41.0856L37.9192 42.153L40.0541 40.0453L39.0002 38.9779L36.8654 41.0856ZM40.0405 42.1665L42.1753 40.0588L40.0676 37.924L37.9328 40.0317L40.0405 42.1665ZM42.1889 37.9375L41.135 36.8701L39.0002 38.9779L40.0541 40.0453L42.1889 37.9375ZM41.135 36.8701L25.1755 20.7057L23.0407 22.8134L39.0002 38.9779L41.135 36.8701ZM39.0002 4.5412L23.0407 20.7057L25.1755 22.8134L41.135 6.64894L39.0002 4.5412Z" fill="#BBBBBB"/>
</svg>
