<svg width="44" height="61" viewBox="0 0 44 61" fill="none" xmlns="http://www.w3.org/2000/svg">
<path d="M21.7014 12.7832C19.4877 12.7864 17.3657 13.6675 15.8007 15.2333C14.2357 16.799 13.3557 18.9215 13.3535 21.1352C13.3557 23.3489 14.2357 25.4714 15.8007 27.0371C17.3657 28.6029 19.4877 29.484 21.7014 29.4872C23.9159 29.485 26.039 28.6044 27.6048 27.0386C29.1707 25.4727 30.0513 23.3496 30.0534 21.1352C30.0513 18.9208 29.1707 16.7977 27.6048 15.2318C26.039 13.666 23.9159 12.7854 21.7014 12.7832V12.7832ZM21.7014 27.4531C20.0269 27.4509 18.4216 26.7845 17.2378 25.6C16.0541 24.4155 15.3887 22.8098 15.3876 21.1352C15.3887 19.4606 16.0541 17.8549 17.2378 16.6704C18.4216 15.4859 20.0269 14.8195 21.7014 14.8173C23.3764 14.8195 24.9821 15.4858 26.1665 16.6701C27.3509 17.8545 28.0172 19.4602 28.0193 21.1352C28.0172 22.8101 27.3509 24.4159 26.1665 25.6003C24.9821 26.7846 23.3764 27.4509 21.7014 27.4531V27.4531Z" fill="#A8A8A8"/>
<path d="M43.4259 18.8567C42.7302 14.3817 40.9849 10.7204 38.2796 7.91737C36.1598 5.7101 33.617 3.95256 30.8029 2.74965C27.9889 1.54674 24.9614 0.923117 21.9011 0.916016C18.8398 0.920943 15.811 1.54356 12.996 2.74658C10.181 3.94961 7.63775 5.70831 5.51845 7.91737C2.80496 10.7122 1.07193 14.3939 0.372201 18.8567C-0.335088 23.5437 0.28354 28.335 2.15812 32.6886C3.76817 36.4621 5.75109 40.0655 8.07734 43.4449C12.032 49.108 16.2909 54.5524 20.8352 59.7543C20.8743 59.9148 20.9517 60.0634 21.0608 60.1874C21.1699 60.3114 21.3075 60.4071 21.4617 60.4662C21.6011 60.5218 21.7515 60.5441 21.9011 60.5313H21.9784C22.1022 60.5304 22.2249 60.507 22.3404 60.4621C22.495 60.4036 22.6329 60.3081 22.7421 60.184C22.8513 60.0599 22.9285 59.911 22.9669 59.7502C27.5112 54.5483 31.7701 49.1039 35.7248 43.4408C38.0495 40.0604 40.0323 36.4573 41.644 32.6845C43.5185 28.3324 44.1358 23.5419 43.4259 18.8567V18.8567ZM39.7645 31.875C38.2083 35.5234 36.2907 39.0068 34.0405 42.2732C30.2699 47.6814 26.2179 52.8877 21.9011 57.8707C17.5827 52.8897 13.528 47.6861 9.75344 42.2814C7.50477 39.014 5.58733 35.5307 4.0295 31.8831C2.31643 27.8818 1.7529 23.482 2.40222 19.1781C3.03686 15.1384 4.58277 11.831 6.99928 9.34124C10.7905 5.38248 15.9942 3.08483 21.4739 2.95011H21.8563H21.9458C22.7961 2.90943 30.4524 2.77925 36.8232 9.3331C39.2397 11.8228 40.7856 15.1303 41.4162 19.17C42.0637 23.4757 41.4929 27.8768 39.7685 31.875H39.7645Z" fill="#A8A8A8"/>
</svg>
