<svg width="87" height="54" viewBox="0 0 87 54" fill="none" xmlns="http://www.w3.org/2000/svg">
<path d="M45.9686 13.2253L33.7884 25.3892L27.4868 19.0876C27.2962 18.8976 27.038 18.7908 26.7688 18.7908C26.4996 18.7908 26.2414 18.8976 26.0507 19.0876C25.956 19.1821 25.8809 19.2943 25.8296 19.4179C25.7783 19.5414 25.752 19.6739 25.752 19.8077C25.752 19.9415 25.7783 20.0739 25.8296 20.1975C25.8809 20.321 25.956 20.4333 26.0507 20.5277L33.0724 27.5495C33.2623 27.7395 33.5198 27.8463 33.7884 27.8464C34.0581 27.8456 34.3167 27.7389 34.5085 27.5495L47.3965 14.6614C47.5866 14.4708 47.6933 14.2126 47.6933 13.9434C47.6933 13.6742 47.5866 13.416 47.3965 13.2253C47.2063 13.0378 46.9498 12.9326 46.6826 12.9326C46.4154 12.9326 46.1589 13.0378 45.9686 13.2253V13.2253Z" fill="#A8A8A8"/>
<path d="M80.8442 22.7738H80.7059H79.7133L77.37 13.7953H77.7768C77.9137 13.795 78.0491 13.7671 78.1749 13.7133C78.3007 13.6595 78.4144 13.5808 78.5091 13.482C78.6051 13.3833 78.68 13.2659 78.7289 13.1372C78.7779 13.0085 78.8 12.8711 78.7939 12.7335C78.7939 12.6196 78.6556 9.88574 77.6507 7.98589C76.3774 5.63041 74.2334 5.63041 71.9674 5.63041H62.7652V1.18795C62.7652 0.918208 62.658 0.659518 62.4673 0.468784C62.2766 0.278051 62.0179 0.170898 61.7481 0.170898H7.93412C7.66438 0.170898 7.40568 0.278051 7.21495 0.468784C7.02421 0.659518 6.91707 0.918208 6.91707 1.18795V26.8175C6.91707 27.0873 7.02421 27.346 7.21495 27.5367C7.40568 27.7274 7.66438 27.8346 7.93412 27.8346C8.20386 27.8346 8.46254 27.7274 8.65328 27.5367C8.84401 27.346 8.95117 27.0873 8.95117 26.8175V2.20499H60.7311V26.8094C60.7311 27.0791 60.8383 27.3378 61.029 27.5286C61.2197 27.7193 61.4784 27.8265 61.7481 27.8265C62.0179 27.8265 62.2766 27.7193 62.4673 27.5286C62.658 27.3378 62.7652 27.0791 62.7652 26.8094V24.7997H80.6164C81.2099 24.9368 81.7656 25.2035 82.2437 25.5808C82.687 25.949 83.053 26.4014 83.3204 26.9118C83.5878 27.4222 83.7515 27.9806 83.8018 28.5547H79.3268C79.0571 28.5547 78.7984 28.6618 78.6076 28.8526C78.4169 29.0433 78.3098 29.302 78.3098 29.5717V33.4324C78.3107 33.565 78.3369 33.6962 78.387 33.8189C78.4318 33.9247 79.4733 36.3778 82.1094 36.3778H83.875V43.0862H79.6482C79.1487 41.415 78.1238 39.9493 76.7256 38.9065C75.3274 37.8637 73.6303 37.2994 71.8861 37.2972C70.1373 37.2992 68.436 37.8663 67.0358 38.9139C65.6355 39.9615 64.6113 41.4336 64.1158 43.1107C63.7822 43.1107 63.3022 43.1107 62.7489 43.1107V32.2974C62.7489 32.0277 62.6418 31.769 62.451 31.5782C62.2603 31.3875 62.0016 31.2804 61.7319 31.2804C61.4621 31.2804 61.2034 31.3875 61.0127 31.5782C60.822 31.769 60.7148 32.0277 60.7148 32.2974V43.131C54.4091 43.131 41.932 43.131 32.7623 43.0903C32.2599 41.4197 31.2338 39.9548 29.8355 38.9118C28.4372 37.8687 26.7406 37.3027 24.9961 37.2972C23.2433 37.3032 21.5393 37.8751 20.1377 38.9277C18.7362 39.9803 17.712 41.4574 17.2177 43.1391H10.192C9.85061 43.136 9.52109 43.0137 9.26034 42.7933C9.04199 42.5251 8.93821 42.1816 8.9715 41.8373V39.3354H15.2202C15.49 39.3354 15.7487 39.2282 15.9394 39.0375C16.1301 38.8468 16.2373 38.5881 16.2373 38.3183C16.2373 38.0486 16.1301 37.7899 15.9394 37.5992C15.7487 37.4084 15.49 37.3013 15.2202 37.3013H1.82369C1.55395 37.3013 1.29526 37.4084 1.10453 37.5992C0.913796 37.7899 0.806641 38.0486 0.806641 38.3183C0.806641 38.5881 0.913796 38.8468 1.10453 39.0375C1.29526 39.2282 1.55395 39.3354 1.82369 39.3354H6.93741V41.8373C6.91564 42.2865 6.98719 42.7352 7.14753 43.1554C7.30788 43.5755 7.55354 43.9578 7.86903 44.2782C8.50337 44.8577 9.32876 45.1835 10.1879 45.1936H16.9411C16.9411 45.2709 16.9411 45.3441 16.9411 45.4214C16.9486 47.5687 17.8047 49.626 19.3227 51.1448C20.8407 52.6636 22.8976 53.5207 25.0449 53.5293C27.1942 53.5271 29.2549 52.6721 30.7743 51.1519C32.2937 49.6317 33.1477 47.5707 33.1488 45.4214C33.1488 45.3278 33.1488 45.2383 33.1488 45.1448C43.5349 45.1814 50.5403 45.1936 55.2594 45.1936C58.1844 45.1936 60.2348 45.1936 61.6749 45.1936C61.7142 45.1956 61.7536 45.1956 61.7929 45.1936C61.8376 45.1975 61.8825 45.1975 61.9271 45.1936C62.7774 45.1936 63.3998 45.1936 63.8555 45.1936C63.8555 45.2831 63.8555 45.3685 63.8555 45.458C63.863 47.606 64.7196 49.664 66.2385 51.1829C67.7574 52.7018 69.8153 53.5584 71.9634 53.5659C74.1107 53.5573 76.1676 52.7002 77.6856 51.1814C79.2036 49.6626 80.0597 47.6053 80.0672 45.458C80.0672 45.3644 80.0672 45.2709 80.0672 45.1773H84.9857C85.2554 45.1773 85.5141 45.0701 85.7048 44.8794C85.8955 44.6887 86.0027 44.43 86.0027 44.1603V29.5717C85.9254 24.7509 82.6058 23.0138 80.8442 22.7738ZM71.9674 7.66451C74.5141 7.66451 75.222 7.81503 75.8363 8.94192C76.2597 9.8309 76.5346 10.7833 76.6499 11.7612H62.7815V7.66451H71.9674ZM62.7652 13.7953H75.283L77.6263 22.7738H62.7815L62.7652 13.7953ZM25.0124 51.483C23.4025 51.4808 21.8593 50.8401 20.7214 49.7014C19.5834 48.5627 18.9437 47.019 18.9426 45.4092C18.9437 43.7997 19.5836 42.2565 20.7216 41.1184C21.8597 39.9804 23.4029 39.3405 25.0124 39.3394C26.6218 39.3405 28.1651 39.9804 29.3031 41.1184C30.4412 42.2565 31.081 43.7997 31.0821 45.4092C31.0789 47.0176 30.4382 48.5592 29.3005 49.6961C28.1628 50.8331 26.6208 51.4727 25.0124 51.4749V51.483ZM71.9024 51.483C70.2938 51.4755 68.7532 50.8332 67.6158 49.6957C66.4783 48.5583 65.836 47.0177 65.8285 45.4092C65.8307 43.7993 66.4714 42.2561 67.6101 41.1182C68.7489 39.9802 70.2925 39.3405 71.9024 39.3394C73.2517 39.3421 74.5617 39.7937 75.6261 40.6231C76.6904 41.4525 77.4485 42.6125 77.7809 43.9202C77.7749 43.9838 77.7749 44.0478 77.7809 44.1114C77.7823 44.3043 77.8372 44.4931 77.9395 44.6566C77.9736 44.906 77.9913 45.1574 77.9924 45.4092C77.9908 46.2073 77.832 46.9974 77.5251 47.7342C77.2182 48.4709 76.7692 49.1401 76.2036 49.7033C75.6381 50.2666 74.9672 50.7129 74.2292 51.0169C73.4912 51.3208 72.7005 51.4765 71.9024 51.4749V51.483ZM82.1257 34.3518C81.7565 34.333 81.3987 34.2171 81.0887 34.0156C80.7786 33.8142 80.5273 33.5344 80.3601 33.2046V30.5969H83.8913V34.3518H82.1257Z" fill="#A8A8A8"/>
<path d="M35.0723 38.3139C35.0723 38.5837 35.1794 38.8424 35.3702 39.0331C35.5609 39.2238 35.8196 39.331 36.0893 39.331H56.6377C56.9075 39.331 57.1662 39.2238 57.3569 39.0331C57.5476 38.8424 57.6548 38.5837 57.6548 38.3139C57.6548 38.0442 57.5476 37.7855 57.3569 37.5948C57.1662 37.404 56.9075 37.2969 56.6377 37.2969H36.0893C35.8196 37.2969 35.5609 37.404 35.3702 37.5948C35.1794 37.7855 35.0723 38.0442 35.0723 38.3139V38.3139Z" fill="#A8A8A8"/>
<path d="M4.644 33.3144H23.0363C23.306 33.3144 23.5647 33.2072 23.7555 33.0165C23.9462 32.8257 24.0533 32.5671 24.0533 32.2973C24.0533 32.0276 23.9462 31.7689 23.7555 31.5782C23.5647 31.3874 23.306 31.2803 23.0363 31.2803H4.644C4.51044 31.2803 4.37819 31.3066 4.2548 31.3577C4.1314 31.4088 4.01928 31.4837 3.92484 31.5782C3.8304 31.6726 3.75549 31.7847 3.70437 31.9081C3.65326 32.0315 3.62695 32.1638 3.62695 32.2973C3.62695 32.4309 3.65326 32.5631 3.70437 32.6865C3.75549 32.8099 3.8304 32.922 3.92484 33.0165C4.01928 33.1109 4.1314 33.1858 4.2548 33.2369C4.37819 33.2881 4.51044 33.3144 4.644 33.3144Z" fill="#A8A8A8"/>
<path d="M25.012 48.0582C26.4792 48.0582 27.6685 46.8688 27.6685 45.4016C27.6685 43.9345 26.4792 42.7451 25.012 42.7451C23.5448 42.7451 22.3555 43.9345 22.3555 45.4016C22.3555 46.8688 23.5448 48.0582 25.012 48.0582Z" fill="#A8A8A8"/>
<path d="M71.9026 48.0582C73.3698 48.0582 74.5592 46.8688 74.5592 45.4016C74.5592 43.9345 73.3698 42.7451 71.9026 42.7451C70.4355 42.7451 69.2461 43.9345 69.2461 45.4016C69.2461 46.8688 70.4355 48.0582 71.9026 48.0582Z" fill="#A8A8A8"/>
</svg>
