<svg width="42" height="32" viewBox="0 0 42 32" fill="none" xmlns="http://www.w3.org/2000/svg">
<path d="M19.0391 16.6953C19.6719 16.0625 19.6719 15.0078 19.0391 14.375L5.39844 0.664062C4.69531 0.03125 3.64062 0.03125 3.00781 0.664062L1.39062 2.28125C0.757812 2.91406 0.757812 3.96875 1.39062 4.67188L12.2188 15.5L1.39062 26.3984C0.757812 27.1016 0.757812 28.1562 1.39062 28.7891L3.00781 30.4062C3.64062 31.0391 4.69531 31.0391 5.39844 30.4062L19.0391 16.6953ZM41.0165 16.6953C41.6493 16.0625 41.6493 15.0078 41.0165 14.375L27.3759 0.664062C26.6727 0.03125 25.618 0.03125 24.9852 0.664062L23.368 2.28125C22.7352 2.91406 22.7352 3.96875 23.368 4.67188L34.1962 15.5L23.368 26.3984C22.7352 27.1016 22.7352 28.1562 23.368 28.7891L24.9852 30.4062C25.618 31.0391 26.6727 31.0391 27.3759 30.4062L41.0165 16.6953Z" fill="#FF8B00"/>
<path d="M19.0391 16.6953L18.6855 16.3418L18.6846 16.3427L19.0391 16.6953ZM19.0391 14.375L18.6846 14.7276L18.6855 14.7286L19.0391 14.375ZM5.39844 0.664062L5.7529 0.311419L5.74317 0.301642L5.73292 0.292415L5.39844 0.664062ZM1.39062 4.67188L1.01898 5.00636L1.02777 5.01613L1.03707 5.02543L1.39062 4.67188ZM12.2188 15.5L12.5734 15.8524L12.9247 15.4989L12.5723 15.1464L12.2188 15.5ZM1.39062 26.3984L1.03593 26.046L1.02723 26.0548L1.01898 26.064L1.39062 26.3984ZM5.39844 30.4062L5.73292 30.7779L5.74317 30.7687L5.7529 30.7589L5.39844 30.4062ZM19.3926 17.0489C20.2207 16.2208 20.2207 14.8495 19.3926 14.0214L18.6855 14.7286C19.1231 15.1661 19.1231 15.9042 18.6855 16.3418L19.3926 17.0489ZM19.3935 14.0224L5.7529 0.311419L5.04398 1.01671L18.6846 14.7276L19.3935 14.0224ZM5.73292 0.292415C4.85034 -0.50191 3.49196 -0.52719 2.65426 0.310509L3.36137 1.01762C3.78929 0.58969 4.54029 0.56441 5.06396 1.03571L5.73292 0.292415ZM2.65426 0.310509L1.03707 1.9277L1.74418 2.6348L3.36137 1.01762L2.65426 0.310509ZM1.03707 1.9277C0.199372 2.7654 0.224653 4.12377 1.01898 5.00636L1.76227 4.33739C1.29097 3.81373 1.31625 3.06273 1.74418 2.6348L1.03707 1.9277ZM1.03707 5.02543L11.8652 15.8536L12.5723 15.1464L1.74418 4.31832L1.03707 5.02543ZM11.8641 15.1476L1.03593 26.046L1.74532 26.7508L12.5734 15.8524L11.8641 15.1476ZM1.01898 26.064C0.224653 26.9465 0.199372 28.3049 1.03707 29.1426L1.74418 28.4355C1.31625 28.0076 1.29097 27.2566 1.76227 26.7329L1.01898 26.064ZM1.03707 29.1426L2.65426 30.7598L3.36137 30.0527L1.74418 28.4355L1.03707 29.1426ZM2.65426 30.7598C3.49196 31.5975 4.85034 31.5722 5.73292 30.7779L5.06396 30.0346C4.54029 30.5059 3.78929 30.4806 3.36137 30.0527L2.65426 30.7598ZM5.7529 30.7589L19.3935 17.048L18.6846 16.3427L5.04398 30.0536L5.7529 30.7589ZM41.0165 16.6953L40.6629 16.3418L40.662 16.3427L41.0165 16.6953ZM41.0165 14.375L40.662 14.7276L40.6629 14.7286L41.0165 14.375ZM27.3759 0.664062L27.7303 0.311419L27.7206 0.301642L27.7103 0.292415L27.3759 0.664062ZM23.368 4.67188L22.9964 5.00636L23.0052 5.01613L23.0145 5.02543L23.368 4.67188ZM34.1962 15.5L34.5509 15.8524L34.9021 15.4989L34.5497 15.1464L34.1962 15.5ZM23.368 26.3984L23.0133 26.046L23.0047 26.0548L22.9964 26.064L23.368 26.3984ZM27.3759 30.4062L27.7103 30.7779L27.7206 30.7687L27.7303 30.7589L27.3759 30.4062ZM41.37 17.0489C42.1981 16.2208 42.1981 14.8495 41.37 14.0214L40.6629 14.7286C41.1005 15.1661 41.1005 15.9042 40.6629 16.3418L41.37 17.0489ZM41.3709 14.0224L27.7303 0.311419L27.0214 1.01671L40.662 14.7276L41.3709 14.0224ZM27.7103 0.292415C26.8278 -0.50191 25.4694 -0.52719 24.6317 0.310509L25.3388 1.01762C25.7667 0.58969 26.5177 0.56441 27.0414 1.03571L27.7103 0.292415ZM24.6317 0.310509L23.0145 1.9277L23.7216 2.6348L25.3388 1.01762L24.6317 0.310509ZM23.0145 1.9277C22.1768 2.7654 22.2021 4.12377 22.9964 5.00636L23.7397 4.33739C23.2684 3.81373 23.2937 3.06273 23.7216 2.6348L23.0145 1.9277ZM23.0145 5.02543L33.8426 15.8536L34.5497 15.1464L23.7216 4.31832L23.0145 5.02543ZM33.8415 15.1476L23.0133 26.046L23.7227 26.7508L34.5509 15.8524L33.8415 15.1476ZM22.9964 26.064C22.2021 26.9465 22.1768 28.3049 23.0145 29.1426L23.7216 28.4355C23.2937 28.0076 23.2684 27.2566 23.7397 26.7329L22.9964 26.064ZM23.0145 29.1426L24.6317 30.7598L25.3388 30.0527L23.7216 28.4355L23.0145 29.1426ZM24.6317 30.7598C25.4694 31.5975 26.8278 31.5722 27.7103 30.7779L27.0414 30.0346C26.5177 30.5059 25.7667 30.4806 25.3388 30.0527L24.6317 30.7598ZM27.7303 30.7589L41.3709 17.048L40.662 16.3427L27.0214 30.0536L27.7303 30.7589Z" fill="#FF8B00"/>
</svg>
