<svg width="35" height="20" viewBox="0 0 35 20" fill="none" xmlns="http://www.w3.org/2000/svg">
<path fill-rule="evenodd" clip-rule="evenodd" d="M17.5006 17.7772C23.7943 17.7772 29.0983 14.7156 32.4398 10.0018C29.0958 5.28684 23.7917 2.22398 17.4981 2.22398C11.2044 2.22398 5.90294 5.2844 2.55767 10.0018C5.90294 14.7156 11.207 17.7772 17.5006 17.7772ZM17.5006 0C24.9491 0 31.1352 3.79199 34.8223 9.41169C34.9384 9.58799 35 9.79189 35 10C35 10.2081 34.9384 10.412 34.8223 10.5883C31.1352 16.208 24.9491 20 17.5006 20C10.0522 20 3.8648 16.208 0.177708 10.5883C0.0615921 10.412 0 10.2081 0 10C0 9.79189 0.0615921 9.58799 0.177708 9.41169C3.8648 3.79199 10.0522 0.00365772 17.5006 0.00365772V0ZM17.5006 14.4449C16.2632 14.4449 15.0765 13.9768 14.2014 13.1436C13.3263 12.3104 12.8345 11.1803 12.8342 10.0018C12.8342 8.82312 13.3258 7.6927 14.2009 6.85923C15.0761 6.02576 16.263 5.55752 17.5006 5.55752C18.7383 5.55752 19.9252 6.02576 20.8003 6.85923C21.6755 7.6927 22.1671 8.82312 22.1671 10.0018C22.1668 11.1803 21.675 12.3104 20.7999 13.1436C19.9248 13.9768 18.738 14.4449 17.5006 14.4449Z" fill="#9B9B9B"/>
</svg>
