<svg width="35" height="16" viewBox="0 0 35 16" fill="none" xmlns="http://www.w3.org/2000/svg">
<path fill-rule="evenodd" clip-rule="evenodd" d="M34.4516 0.174506C34.714 0.336394 34.9005 0.594311 34.9701 0.891613C35.0397 1.18891 34.9867 1.50129 34.8229 1.76014C33.8105 3.36319 32.5919 4.83033 31.1975 6.12498L33.9964 8.88387C34.1066 8.99026 34.1942 9.11711 34.2543 9.2571C34.3144 9.39708 34.3457 9.54742 34.3465 9.69942C34.3473 9.85142 34.3175 10.0021 34.2588 10.1426C34.2002 10.2832 34.1138 10.4109 34.0048 10.5184C33.8958 10.6259 33.7662 10.711 33.6236 10.7688C33.4809 10.8266 33.3281 10.856 33.1739 10.8552C33.0197 10.8545 32.8672 10.8236 32.7252 10.7643C32.5831 10.7051 32.4544 10.6187 32.3465 10.5102L29.4002 7.60607C27.5289 8.99105 25.423 10.0377 23.1807 10.6975L24.2281 14.5526C24.3065 14.8467 24.2636 15.1594 24.1087 15.4224C23.9539 15.6854 23.6996 15.8772 23.4017 15.9559C23.1037 16.0346 22.7863 15.9938 22.5187 15.8424C22.2512 15.691 22.0554 15.4413 21.9742 15.148L20.9061 11.2173C19.7815 11.4061 18.6426 11.5003 17.5017 11.499C16.3609 11.5003 15.222 11.4061 14.0973 11.2173L13.0293 15.148C12.9488 15.4424 12.7532 15.6933 12.4854 15.8457C12.2175 15.9982 11.8992 16.0397 11.6003 15.9611C11.4522 15.9222 11.3134 15.8549 11.1917 15.763C11.0701 15.6711 10.968 15.5564 10.8914 15.4256C10.8148 15.2948 10.7651 15.1503 10.7452 15.0005C10.7253 14.8507 10.7355 14.6985 10.7754 14.5526L11.8301 10.6975C9.58435 10.0397 7.47495 8.99399 5.60025 7.60897L2.65398 10.5131C2.43518 10.7287 2.13844 10.8499 1.82903 10.8499C1.51961 10.8499 1.22287 10.7287 1.00407 10.5131C0.785293 10.2974 0.662387 10.0049 0.662387 9.69992C0.662387 9.39493 0.785293 9.10244 1.00407 8.88677L3.80303 6.12789C2.40855 4.83323 1.18996 3.36609 0.177641 1.76304C0.0961672 1.63458 0.0412112 1.49154 0.0159221 1.34211C-0.00936696 1.19268 -0.00449199 1.0398 0.0302677 0.892232C0.0650275 0.744663 0.128989 0.605305 0.218486 0.482143C0.307984 0.358983 0.421258 0.25444 0.551818 0.174506C0.814197 0.0130453 1.13089 -0.0391096 1.43226 0.0295065C1.73364 0.0981227 1.99505 0.281894 2.15901 0.540421C3.25463 2.28129 4.62349 3.83983 6.21455 5.15792C6.23959 5.1768 6.26464 5.19713 6.28821 5.21891C9.43476 7.80434 13.4053 9.21362 17.5017 9.19896C24.0572 9.19896 29.5328 5.76488 32.8444 0.540421C33.0084 0.281894 33.2698 0.0981227 33.5712 0.0295065C33.8726 -0.0391096 34.1892 0.0130453 34.4516 0.174506Z" fill="#9B9B9B"/>
</svg>
