<svg width="40" height="36" viewBox="0 0 40 36" fill="none" xmlns="http://www.w3.org/2000/svg">
<path fill-rule="evenodd" clip-rule="evenodd" d="M17.2265 35.2266C17.0442 35.4088 16.8229 35.5 16.5625 35.5H7.49998C6.8229 35.5 6.23696 35.2526 5.74217 34.7578C5.24738 34.263 4.99999 33.6771 4.99999 33V15.1094L1.71875 17.6875C1.61458 17.7917 1.49739 17.8308 1.36718 17.8047C1.23698 17.7787 1.14583 17.7136 1.09375 17.6094L0.0781248 16.4375C0.0260412 16.3334 0 16.2162 0 16.086C0 15.9558 0.0520836 15.8386 0.15625 15.7344L18.4375 1.04695C18.9062 0.682367 19.427 0.500076 20 0.500076C20.5729 0.500076 21.0937 0.682367 21.5624 1.04695L32.4999 9.87505V5.96881C32.4999 5.81256 32.552 5.69538 32.6562 5.61725C32.7603 5.53913 32.8645 5.50006 32.9687 5.50006H34.5312C34.6353 5.50006 34.7395 5.53913 34.8437 5.61725C34.9478 5.69538 34.9999 5.81256 34.9999 5.96881V11.9063L39.8437 15.7344V15.8125C39.9478 15.8646 39.9999 15.9558 39.9999 16.086C39.9999 16.2162 39.9739 16.3334 39.9218 16.4375L38.9062 17.6875C38.8541 17.7917 38.7629 17.8438 38.6327 17.8438C38.5025 17.8438 38.3853 17.7917 38.2812 17.6875L34.9999 15.1094V33C34.9999 33.6771 34.7525 34.263 34.2577 34.7578C33.7629 35.2526 33.177 35.5 32.4999 35.5H23.4374C23.177 35.5 22.9557 35.4088 22.7734 35.2266C22.5911 35.0443 22.4999 34.8229 22.4999 34.5625V24.25H17.5V34.5625C17.5 34.8229 17.4088 35.0443 17.2265 35.2266ZM7.49998 33H15V22.6875C15 22.4271 15.0911 22.2058 15.2734 22.0235C15.4557 21.8412 15.677 21.75 15.9375 21.75H24.0624C24.3229 21.75 24.5442 21.8412 24.7265 22.0235C24.9088 22.2058 24.9999 22.4271 24.9999 22.6875V33H32.4999V13.0782L20.3125 3.23444C20.1041 3.0782 19.8958 3.0782 19.6875 3.23444L7.49998 13.0782V33Z" fill="white"/>
</svg>
