<svg width="31" height="31" viewBox="0 0 31 31" fill="none" xmlns="http://www.w3.org/2000/svg">
<path fill-rule="evenodd" clip-rule="evenodd" d="M16.2627 31C18.8669 30.9945 20.7692 30.9602 21.9696 30.897C23.2844 30.8278 24.4262 30.6317 25.3949 30.3088C26.5483 29.8936 27.5516 29.2593 28.4051 28.4059C29.2585 27.5524 29.8928 26.549 30.308 25.3957C30.6309 24.427 30.827 23.2852 30.8962 21.9704C30.9654 20.6557 31 18.499 31 15.5004L30.9995 14.7685C30.996 12.1502 30.9731 10.249 30.9308 9.06496C30.8385 7.72713 30.6309 6.57383 30.308 5.60505C29.8928 4.45175 29.2585 3.44838 28.4051 2.59493C27.5516 1.74149 26.5483 1.10717 25.3949 0.691982C24.4262 0.369057 23.2844 0.172995 21.9696 0.103797C20.6549 0.0345991 18.4982 0 15.4996 0L15.1133 0.000196214C12.3151 0.00307402 10.2872 0.0376077 9.02958 0.103797C7.71481 0.172995 6.57304 0.369057 5.60427 0.691982C4.45096 1.10717 3.44759 1.74149 2.59415 2.59493C1.7407 3.44838 1.10639 4.45175 0.691197 5.60505C0.368272 6.57383 0.172211 7.7156 0.103012 9.03036C0.0398315 10.2308 0.005494 12.1331 0 14.7373V16.2635C0.005494 18.8677 0.0398315 20.77 0.103012 21.9704C0.172211 23.2852 0.368272 24.427 0.691197 25.3957C1.10639 26.549 1.7407 27.5524 2.59415 28.4059C3.44759 29.2593 4.45096 29.8705 5.60427 30.2396C6.57304 30.6087 7.71481 30.8278 9.02958 30.897C10.23 30.9602 12.1323 30.9945 14.7365 31H16.2627ZM16.9543 28.2326L14.0289 28.2325C12.3583 28.2297 11.0494 28.2067 10.1021 28.1637C8.39526 28.0714 7.14969 27.8869 6.36545 27.6101C4.98148 27.0565 3.98964 26.0646 3.38993 24.6346C3.11313 23.8503 2.9286 22.6047 2.83634 20.8979C2.79021 19.8829 2.76714 18.4528 2.76714 16.6076L2.76745 14.0297C2.77032 12.3591 2.79328 11.0502 2.83634 10.1029C2.9286 8.34991 3.11313 7.10435 3.38993 6.36623C3.94351 4.93614 4.93535 3.9443 6.36545 3.39071C7.14969 3.11392 8.39526 2.92939 10.1021 2.83713C11.1171 2.79099 12.5472 2.76793 14.3924 2.76793L16.9703 2.76823C18.6409 2.77111 19.9498 2.79407 20.8971 2.83713C22.6501 2.92939 23.8957 3.11392 24.6338 3.39071C26.0639 3.9443 27.0557 4.93614 27.6093 6.36623C27.8861 7.10435 28.0706 8.34991 28.1629 10.1029C28.209 11.0717 28.2321 12.5018 28.2321 14.3932L28.2318 16.9711C28.2289 18.6417 28.2059 19.9506 28.1629 20.8979C28.0706 22.6047 27.8861 23.8503 27.6093 24.6346C27.0557 26.0185 26.0639 27.0104 24.6338 27.6101C23.8957 27.8869 22.6501 28.0714 20.8971 28.1637C19.9887 28.2069 18.6747 28.2299 16.9552 28.2326L16.9543 28.2326ZM25.0836 8.51138C24.7376 8.88043 24.3108 9.06496 23.8034 9.06496C23.2959 9.06496 22.8577 8.88043 22.4886 8.51138C22.1196 8.14232 21.935 7.70406 21.935 7.19661C21.935 6.68916 22.1196 6.2509 22.4886 5.88185C22.8577 5.51279 23.2959 5.32826 23.8034 5.32826C24.3108 5.32826 24.7491 5.51279 25.1182 5.88185C25.4872 6.2509 25.6717 6.68916 25.6717 7.19661C25.6256 7.70406 25.4295 8.14232 25.0836 8.51138ZM15.4996 23.4582C16.9297 23.4582 18.256 23.1007 19.4785 22.3856C20.701 21.6706 21.6698 20.7018 22.3848 19.4793C23.0999 18.2568 23.4574 16.9305 23.4574 15.5004C23.4574 14.0703 23.0999 12.744 22.3848 11.5215C21.6698 10.299 20.701 9.33022 19.4785 8.61517C18.256 7.90013 16.9297 7.5426 15.4996 7.5426C14.0695 7.5426 12.7432 7.90013 11.5207 8.61517C10.2982 9.33022 9.32944 10.299 8.61439 11.5215C7.89934 12.744 7.54182 14.0703 7.54182 15.5004C7.54182 16.9305 7.89934 18.2568 8.61439 19.4793C9.32944 20.7018 10.2982 21.6706 11.5207 22.3856C12.7432 23.1007 14.0695 23.4582 15.4996 23.4582ZM11.8321 19.1679C12.847 20.1828 14.0695 20.6903 15.4996 20.6903C16.9297 20.6903 18.1522 20.1828 19.1671 19.1679C20.182 18.153 20.6895 16.9305 20.6895 15.5004C20.6895 14.0703 20.182 12.8478 19.1671 11.8329C18.1522 10.818 16.9297 10.3105 15.4996 10.3105C14.0695 10.3105 12.847 10.818 11.8321 11.8329C10.8172 12.8478 10.3097 14.0703 10.3097 15.5004C10.3097 16.9305 10.8172 18.153 11.8321 19.1679Z" fill="black"/>
</svg>
