<svg width="22" height="16" viewBox="0 0 22 16" fill="none" xmlns="http://www.w3.org/2000/svg">
<path d="M1.78839 16H20.2116C21.1976 16 22 15.1384 22 14.0794V1.92064C22 0.86656 21.2047 0.00976 20.2251 0.0016C20.222 0.00144 20.2192 0 20.2162 0H20.2116H1.78839H1.78378C1.78066 0 1.77784 0.00144 1.77486 0.0016C0.79527 0.00976 8.25713e-08 0.86656 8.25713e-08 1.92064V14.0794C-0.000297215 15.1384 0.802257 16 1.78839 16ZM1.97509 14.72L8.06954 7.61344L10.6016 10.075C10.7147 10.185 10.8571 10.24 10.9997 10.24C11.1424 10.24 11.2848 10.185 11.3981 10.075L13.93 7.61344L20.0246 14.72H1.97509ZM20.4022 1.32112C20.6379 1.40736 20.8107 1.63952 20.8107 1.92048V13.7501L14.8124 6.75568L20.4022 1.32112ZM18.671 1.28L10.9997 8.73744L3.32884 1.28H18.671ZM1.18889 1.92064C1.18889 1.63968 1.36162 1.40752 1.59738 1.32128L7.18716 6.75584L1.18889 13.7501V1.92064Z" fill="black"/>
</svg>
