<svg width="56" height="74" viewBox="0 0 56 74" fill="none" xmlns="http://www.w3.org/2000/svg">
<path fill-rule="evenodd" clip-rule="evenodd" d="M31.1649 72.0642C30.495 73.0212 29.5858 73.4998 28.4374 73.4998C27.289 73.4998 26.3798 73.0212 25.7099 72.0642L17.0966 60.0057C11.9287 52.5408 8.53122 47.5643 6.90428 45.076C4.51171 41.3436 2.90869 38.2811 2.09521 35.8886C1.28174 33.496 0.875 30.7206 0.875 27.5624C0.875 22.5859 2.11914 17.9921 4.60741 13.7812C7.09568 9.57028 10.4453 6.22068 14.6562 3.73241C18.8671 1.24414 23.4609 0 28.4374 0C33.414 0 38.0077 1.24414 42.2186 3.73241C46.4295 6.22068 49.7791 9.57028 52.2674 13.7812C54.7557 17.9921 55.9998 22.5859 55.9998 27.5624C55.9998 30.7206 55.5931 33.496 54.7796 35.8886C53.9661 38.2811 52.3631 41.3436 49.9705 45.076C48.3436 47.5643 44.9461 52.5408 39.7782 60.0057L31.1649 72.0642ZM23.7001 42.205C24.083 42.4921 24.4897 42.6356 24.9204 42.6356C25.351 42.6356 25.7099 42.4921 25.997 42.205L44.8026 23.5429C45.0897 23.2558 45.2333 22.8969 45.2333 22.4663C45.2333 22.0356 45.0897 21.6289 44.8026 21.2461L41.0702 17.5137C40.7831 17.2265 40.4242 17.083 39.9936 17.083C39.5629 17.083 39.204 17.2265 38.9169 17.5137L24.9921 31.4384L18.8193 25.2656C18.5322 24.9785 18.1733 24.8349 17.7426 24.8349C17.312 24.8349 16.9531 24.9785 16.666 25.2656L12.9336 28.998C12.6465 29.2851 12.5029 29.644 12.5029 30.0746C12.5029 30.5053 12.6465 30.8642 12.9336 31.1513L23.7001 42.205Z" fill="#493C8C"/>
</svg>
