<svg width="64" height="65" viewBox="0 0 64 65" fill="none" xmlns="http://www.w3.org/2000/svg">
<path fill-rule="evenodd" clip-rule="evenodd" d="M47.9843 59.9002C43.0858 62.7791 37.7577 64.2186 31.9999 64.2186C26.2421 64.2186 20.914 62.7791 16.0156 59.9002C11.1172 57.0214 7.2285 53.1327 4.3496 48.2343C1.4707 43.3358 0.03125 38.0077 0.03125 32.2499C0.03125 26.4921 1.4707 21.164 4.3496 16.2656C7.2285 11.3672 11.1172 7.4785 16.0156 4.5996C20.914 1.7207 26.2421 0.28125 31.9999 0.28125C37.7577 0.28125 43.0858 1.7207 47.9843 4.5996C52.8827 7.4785 56.7714 11.3672 59.6502 16.2656C62.5291 21.164 63.9686 26.4921 63.9686 32.2499C63.9686 38.0077 62.5291 43.3358 59.6502 48.2343C56.7714 53.1327 52.8827 57.0214 47.9843 59.9002ZM21.1718 48.3632C22.2031 48.9647 23.2343 48.9647 24.2656 48.3632L46.953 35.3437C47.9843 34.7421 48.4999 33.8398 48.4999 32.6366C48.4999 31.4335 47.9843 30.5312 46.953 29.9296L24.2656 16.1367C23.2343 15.5351 22.2031 15.5351 21.1718 16.1367C20.1406 16.7382 19.625 17.6406 19.625 18.8437V45.6561C19.625 46.8593 20.1406 47.7616 21.1718 48.3632Z" fill="white"/>
</svg>
