<svg width="38" height="40" viewBox="0 0 38 40" fill="none" xmlns="http://www.w3.org/2000/svg">
<path fill-rule="evenodd" clip-rule="evenodd" d="M17.5937 39.6875C18.5312 40.1042 19.4687 40.1042 20.4062 39.6875C23.0104 38.6458 25.5104 36.9531 27.9062 34.6094C30.7708 31.7969 33.0624 28.5156 34.7812 24.7657C36.7603 20.2865 37.7499 15.3646 37.7499 10.0001C37.7499 9.21882 37.5416 8.5157 37.1249 7.8907C36.7082 7.2657 36.1353 6.82299 35.4062 6.56258L20.4062 0.312591C19.4687 -0.104075 18.5312 -0.104075 17.5937 0.312591L2.59374 6.56258C1.86458 6.82299 1.29166 7.2657 0.874999 7.8907C0.458333 8.5157 0.25 9.21882 0.25 10.0001C0.25 14.8959 1.13541 19.5053 2.90624 23.8282C4.46874 27.6823 6.63019 31.0417 9.3906 33.9063C11.8906 36.5625 14.625 38.4896 17.5937 39.6875ZM19.4687 37.4219C19.1562 37.526 18.8437 37.526 18.5312 37.4219C15.875 36.3802 13.375 34.5833 11.0312 32.0313C8.53123 29.3229 6.57811 26.1719 5.17186 22.5782C3.55728 18.5678 2.74999 14.3751 2.74999 10.0001C2.74999 9.42715 3.01041 9.03653 3.53124 8.8282L18.5312 2.57821C18.8437 2.47404 19.1562 2.47404 19.4687 2.57821L34.4687 8.8282C34.9895 9.03653 35.2499 9.42715 35.2499 10.0001C35.2499 14.3751 34.4426 18.5678 32.828 22.5782C31.4218 26.1719 29.4687 29.3229 26.9687 32.0313C24.6249 34.5833 22.1249 36.3802 19.4687 37.4219ZM16.6562 27.9688C16.5 28.1771 16.2916 28.2813 16.0312 28.2813C15.7708 28.2813 15.5364 28.1771 15.3281 27.9688L8.60935 21.25C8.45311 21.0417 8.37498 20.8073 8.37498 20.5469C8.37498 20.2865 8.47915 20.0782 8.68748 19.9219L9.31248 19.2188C9.52081 19.0625 9.75519 18.9844 10.0156 18.9844C10.276 18.9844 10.4844 19.0625 10.6406 19.2188L16.0312 24.6875L28.7656 12.0313C28.9739 11.823 29.2083 11.7188 29.4687 11.7188C29.7291 11.7188 29.9374 11.823 30.0937 12.0313L30.7968 12.6563C30.9531 12.8646 31.0312 13.099 31.0312 13.3594C31.0312 13.6198 30.9531 13.8282 30.7968 13.9844L16.6562 27.9688Z" fill="white"/>
</svg>
