<svg width="35" height="40" viewBox="0 0 35 40" fill="none" xmlns="http://www.w3.org/2000/svg">
<path fill-rule="evenodd" clip-rule="evenodd" d="M22.539 18.6718C21.0026 19.5572 19.3229 20 17.5 20C15.677 20 13.9974 19.5572 12.4609 18.6718C10.9245 17.7864 9.71352 16.5755 8.8281 15.039C7.94269 13.5026 7.49998 11.8229 7.49998 9.99998C7.49998 8.17706 7.94269 6.49738 8.8281 4.96093C9.71352 3.42447 10.9245 2.21354 12.4609 1.32812C13.9974 0.442708 15.677 0 17.5 0C19.3229 0 21.0026 0.442708 22.539 1.32812C24.0755 2.21354 25.2864 3.42447 26.1718 4.96093C27.0572 6.49738 27.4999 8.17706 27.4999 9.99998C27.4999 11.8229 27.0572 13.5026 26.1718 15.039C25.2864 16.5755 24.0755 17.7864 22.539 18.6718ZM12.1875 15.3125C13.6458 16.7708 15.4166 17.5 17.5 17.5C19.5833 17.5 21.3541 16.7708 22.8124 15.3125C24.2708 13.8541 24.9999 12.0833 24.9999 9.99998C24.9999 7.91665 24.2708 6.14582 22.8124 4.68749C21.3541 3.22916 19.5833 2.49999 17.5 2.49999C15.4166 2.49999 13.6458 3.22916 12.1875 4.68749C10.7291 6.14582 9.99998 7.91665 9.99998 9.99998C9.99998 12.0833 10.7291 13.8541 12.1875 15.3125ZM31.2499 39.9999C32.2916 39.9999 33.177 39.6353 33.9062 38.9062C34.6353 38.177 34.9999 37.2916 34.9999 36.2499V32.9687C34.9999 31.0937 34.5312 29.3489 33.5937 27.7343C32.6562 26.1197 31.3801 24.8437 29.7656 23.9062C28.151 22.9687 26.4062 22.4999 24.5312 22.4999C23.8541 22.4999 22.9687 22.6822 21.8749 23.0468C21.1458 23.2552 20.5468 23.4114 20.0781 23.5156C19.2968 23.6718 18.4375 23.7499 17.5 23.7499C16.5625 23.7499 15.7031 23.6718 14.9218 23.5156C14.4531 23.4114 13.8541 23.2552 13.125 23.0468C12.0312 22.6822 11.1458 22.4999 10.4687 22.4999C8.59373 22.4999 6.84894 22.9687 5.23436 23.9062C3.61978 24.8437 2.34374 26.1197 1.40625 27.7343C0.468749 29.3489 0 31.0937 0 32.9687V36.2499C0 37.2916 0.364583 38.177 1.09375 38.9062C1.82291 39.6353 2.70833 39.9999 3.74999 39.9999H31.2499ZM2.85156 37.1483C3.08593 37.3827 3.38541 37.4999 3.74999 37.4999H31.2499C31.6145 37.4999 31.914 37.3827 32.1484 37.1483C32.3827 36.914 32.4999 36.6145 32.4999 36.2499V32.9687C32.4999 30.7812 31.7187 28.9062 30.1562 27.3437C28.5937 25.7812 26.7187 24.9999 24.5312 24.9999C24.1145 24.9999 23.4635 25.1301 22.5781 25.3906C20.8072 25.9635 19.1145 26.2499 17.5 26.2499C15.8854 26.2499 14.1927 25.9635 12.4218 25.3906C11.5364 25.1301 10.8854 24.9999 10.4687 24.9999C8.28123 24.9999 6.40623 25.7812 4.84374 27.3437C3.28124 28.9062 2.49999 30.7812 2.49999 32.9687V36.2499C2.49999 36.6145 2.61718 36.914 2.85156 37.1483Z" fill="black"/>
</svg>
