<svg width="222" height="64" viewBox="0 0 222 64" fill="none" xmlns="http://www.w3.org/2000/svg">
<path d="M8.85156 3.79333H214.955V60.6931H8.85156V3.79333Z" fill="black"/>
<path d="M148.985 19.6521C150.103 19.6521 150.892 18.5654 150.892 16.9764C150.892 15.7565 150.349 14.3521 149.006 14.3521C147.612 14.3521 147.048 15.7155 147.048 17.0072C147.048 18.5142 147.796 19.6521 148.965 19.6521H148.985Z" fill="white"/>
<path d="M78.4759 31.6771H78.4144C78.1991 32.61 77.8505 33.994 77.3687 35.8187L75.5439 41.5596H81.4488L79.5933 35.8187C79.378 35.2344 79.0089 33.8504 78.4759 31.6771Z" fill="white"/>
<path d="M94.4671 18.5963C94.5184 18.4527 94.5184 18.3092 94.5184 18.1657V17.0893C93.1242 17.0688 91.8018 17.3661 91.8018 18.545C91.8018 19.3139 92.2938 19.6624 92.9192 19.6624C93.7085 19.6727 94.2724 19.1601 94.4671 18.5963Z" fill="white"/>
<path d="M112.91 18.5963C112.961 18.4527 112.961 18.3092 112.961 18.1657V17.0893C111.567 17.0688 110.244 17.3661 110.244 18.545C110.244 19.3139 110.736 19.6624 111.362 19.6624C112.161 19.6727 112.715 19.1601 112.91 18.5963Z" fill="white"/>
<path d="M121.44 14.4648C120.64 14.4648 119.902 15.0389 119.697 15.9C119.667 16.0435 119.636 16.2178 119.636 16.4126V17.6735C119.636 17.8375 119.656 17.9913 119.687 18.1348C119.892 18.9344 120.579 19.5085 121.43 19.5085C122.66 19.5085 123.419 18.5346 123.419 16.9456C123.408 15.5924 122.752 14.4648 121.44 14.4648Z" fill="white"/>
<path d="M166.044 37.1206C164.63 37.1206 163.553 37.7562 162.815 39.0171C162.18 40.0628 161.872 41.334 161.872 42.8409C161.872 44.2966 162.18 45.5576 162.815 46.6032C163.574 47.8642 164.64 48.4998 166.014 48.4998C167.357 48.4998 168.413 47.8539 169.171 46.5725C169.827 45.5063 170.145 44.2454 170.145 42.7794C170.145 41.3237 169.827 40.0628 169.202 39.0171C168.474 37.7562 167.418 37.1206 166.044 37.1206Z" fill="white"/>
<path d="M98.3624 37.3461C97.491 37.3461 96.7016 37.6332 95.9943 38.2073C95.2869 38.7916 94.8256 39.5399 94.6103 40.4728C94.4976 40.9136 94.4463 41.2622 94.4463 41.5492V44.1941C94.4463 45.3423 94.7948 46.3162 95.5022 47.1158C96.2096 47.9154 97.1322 48.305 98.2598 48.305C99.5823 48.305 100.618 47.8026 101.356 46.7775C102.094 45.7523 102.463 44.4094 102.463 42.7282C102.463 41.1904 102.114 39.909 101.417 38.9146C100.659 37.869 99.6438 37.3461 98.3624 37.3461Z" fill="white"/>
<path d="M116.58 37.3461C115.709 37.3461 114.919 37.6332 114.212 38.2073C113.505 38.7916 113.043 39.5399 112.828 40.4728C112.715 40.9136 112.664 41.2622 112.664 41.5492V44.1941C112.664 45.3423 113.013 46.3162 113.72 47.1158C114.427 47.9154 115.34 48.305 116.478 48.305C117.8 48.305 118.835 47.8026 119.574 46.7775C120.312 45.7523 120.681 44.4094 120.681 42.7282C120.681 41.1904 120.332 39.909 119.635 38.9146C118.887 37.869 117.872 37.3461 116.58 37.3461Z" fill="white"/>
<path d="M188.483 14.2803C187.263 14.2803 186.75 15.3874 186.679 16.187H190.103C190.113 15.4592 189.795 14.2803 188.483 14.2803Z" fill="white"/>
<path d="M135.74 14.2803C134.52 14.2803 134.007 15.3874 133.936 16.187H137.36C137.37 15.4592 137.052 14.2803 135.74 14.2803Z" fill="white"/>
<path d="M75.6866 13.696C75.4815 13.0399 75.3073 12.3018 75.1432 11.6765H75.1125C74.9484 12.3018 74.7947 13.0502 74.5999 13.696L73.7695 16.3511H76.5374L75.6866 13.696Z" fill="white"/>
<path d="M213.866 0H7.56559C3.39324 0 0 3.39324 0 7.56559V56.4344C0 60.617 3.39324 64 7.56559 64H213.866C218.049 64 221.432 60.617 221.432 56.4344V7.56559C221.432 3.39324 218.049 0 213.866 0ZM168.329 13.1116H169.436V11.6559L171.374 11.1126V13.1116H173.25V14.5879H171.374V18.0119C171.374 18.9755 171.63 19.4471 172.379 19.4471C172.727 19.4471 172.922 19.4266 173.147 19.365L173.178 20.8515C172.891 20.9643 172.358 21.0565 171.753 21.0565C171.015 21.0565 170.431 20.8208 170.062 20.421C169.631 19.9699 169.436 19.2523 169.436 18.2271V14.5776H168.329V13.1116ZM135.853 12.9374C138.385 12.9374 139.215 15.0184 139.215 16.7304C139.215 17.0995 139.184 17.3865 139.154 17.5608H133.936C133.987 18.9652 135.084 19.5803 136.334 19.5803C137.247 19.5803 137.882 19.4368 138.498 19.2318L138.785 20.5747C138.108 20.8618 137.185 21.0668 136.068 21.0668C133.536 21.0668 132.049 19.5188 132.049 17.1302C132.039 14.9672 133.351 12.9374 135.853 12.9374ZM104.012 9.52363H105.98V20.9028H104.012V9.52363ZM100.208 9.86193C100.885 9.86193 101.295 10.3232 101.315 10.9383C101.315 11.5124 100.885 11.9942 100.208 11.9942H100.188C99.5316 11.9942 99.1011 11.5124 99.1011 10.9383C99.1011 10.3232 99.5521 9.86193 100.208 9.86193ZM101.182 13.1116V20.9028H99.2138V13.1116H101.182ZM73.9439 10.1182H76.4555L79.9615 20.9028H77.8497L76.8758 17.8478H73.4519L72.519 20.9028H70.4892L73.9439 10.1182ZM39.6015 12.107C41.1084 10.3335 43.7328 8.9803 45.8241 8.88803C46.1009 11.3894 45.1065 13.8498 43.6611 15.6643C42.1541 17.448 39.7347 18.8115 37.3769 18.6372C37.0694 16.2281 38.2585 13.6755 39.6015 12.107ZM51.6777 45.8959C49.9452 48.4895 48.1204 51.0319 45.2398 51.0729C42.4309 51.1344 41.4877 49.4224 38.2688 49.4224C35.0191 49.4224 34.0144 51.0216 31.3285 51.1344C28.5811 51.2369 26.4796 48.3665 24.6753 45.7934C21.077 40.5344 18.2784 30.9902 22.0304 24.4908C23.8449 21.3026 27.1664 19.2523 30.7134 19.201C33.4608 19.1498 36.0237 21.0668 37.7152 21.0668C39.3759 21.0668 42.5334 18.7705 45.7934 19.119C47.1568 19.16 51.0421 19.6521 53.5435 23.3119C53.3385 23.4349 48.9201 26.0285 48.9713 31.3695C49.0226 37.7665 54.5686 39.8885 54.6404 39.909C54.5891 40.0525 53.7588 42.9537 51.6777 45.8959ZM84.1134 50.7243L82.0631 44.2659H74.9281L72.97 50.7243H69.3205L76.394 28.7452H80.7612L87.8654 50.7243H84.1134ZM85.5999 20.9028H83.6623L80.7612 13.1116H82.8935L84.1544 17.0687C84.3799 17.7556 84.5337 18.3809 84.6875 19.0165H84.7387C84.8823 18.3809 85.0565 17.7658 85.2718 17.0687L86.5225 13.1116H88.583L85.5999 20.9028ZM89.844 18.7602C89.844 16.8124 91.5867 15.7975 94.4674 15.818V15.6848C94.4674 15.1722 94.2624 14.3213 92.8784 14.3213C92.1096 14.3213 91.3099 14.5571 90.7871 14.8954L90.4078 13.614C90.9819 13.2654 91.9968 12.9271 93.227 12.9271C95.7283 12.9271 96.4459 14.5161 96.4459 16.2281V19.0267C96.4459 19.7341 96.4767 20.4209 96.5689 20.9028H94.7954L94.6519 20.0416H94.6007C94.1393 20.6465 93.3192 21.077 92.2941 21.077C90.7153 21.077 89.844 19.9391 89.844 18.7602ZM103.868 48.9918C102.566 50.386 100.946 51.0729 99.0088 51.0729C96.9175 51.0729 95.4208 50.3245 94.5084 48.8278H94.4469V57.1725H90.9204V40.0935C90.9204 38.4021 90.8794 36.6593 90.7871 34.8755H93.8831L94.0778 37.3872H94.1496C95.3183 35.4906 97.102 34.5475 99.4906 34.5475C101.356 34.5475 102.925 35.2856 104.165 36.7618C105.416 38.238 106.041 40.1858 106.041 42.5949C106.052 45.291 105.324 47.4234 103.868 48.9918ZM108.286 18.7602C108.286 16.8124 110.029 15.7975 112.91 15.818V15.6848C112.91 15.1722 112.705 14.3213 111.331 14.3213C110.562 14.3213 109.763 14.5571 109.24 14.8954L108.86 13.614C109.435 13.2654 110.449 12.9271 111.68 12.9271C114.171 12.9271 114.899 14.5161 114.899 16.2281V19.0267C114.899 19.7341 114.929 20.4209 115.022 20.9028H113.248L113.105 20.0416H113.053C112.592 20.6465 111.772 21.077 110.747 21.077C109.168 21.077 108.286 19.9391 108.286 18.7602ZM122.095 48.9918C120.793 50.386 119.173 51.0729 117.236 51.0729C115.155 51.0729 113.648 50.3245 112.736 48.8278H112.674V57.1725H109.158V40.0935C109.158 38.4021 109.117 36.6593 109.024 34.8755H112.12L112.315 37.3872H112.387C113.556 35.4906 115.339 34.5475 117.728 34.5475C119.594 34.5475 121.152 35.2856 122.403 36.7618C123.653 38.238 124.279 40.1858 124.279 42.5949C124.279 45.291 123.551 47.4234 122.095 48.9918ZM121.87 21.077C120.865 21.077 119.963 20.6875 119.409 19.7341H119.378L119.286 20.9028H117.605C117.636 20.3697 117.666 19.5086 117.666 18.7295V9.52363H119.635V14.1778H119.666C120.147 13.4294 120.998 12.9271 122.167 12.9271C124.074 12.9271 125.427 14.5161 125.417 16.8842C125.406 19.6828 123.633 21.077 121.87 21.077ZM129.691 20.9028H127.723V9.52363H129.691V20.9028ZM142.701 49.1251C141.265 50.4065 139.277 51.0524 136.714 51.0524C134.346 51.0524 132.449 50.6013 131.014 49.6889L131.834 46.757C133.382 47.6899 135.074 48.1615 136.929 48.1615C138.251 48.1615 139.287 47.8642 140.025 47.2696C140.763 46.6647 141.132 45.8651 141.132 44.8707C141.132 43.9789 140.825 43.2305 140.22 42.6154C139.615 42.0003 138.6 41.4365 137.185 40.9137C133.341 39.4785 131.414 37.3769 131.414 34.609C131.414 32.8047 132.09 31.3183 133.433 30.1701C134.776 29.0117 136.57 28.4376 138.815 28.4376C140.814 28.4376 142.475 28.7862 143.798 29.4833L142.916 32.3537C141.675 31.6771 140.271 31.3388 138.713 31.3388C137.472 31.3388 136.509 31.6463 135.812 32.2512C135.227 32.7945 134.93 33.4608 134.93 34.2399C134.93 35.1113 135.268 35.8289 135.935 36.3928C136.519 36.9156 137.585 37.4794 139.133 38.0945C141.019 38.8531 142.414 39.745 143.305 40.7701C144.197 41.7953 144.638 43.0665 144.638 44.5837C144.659 46.429 144.013 47.9462 142.701 49.1251ZM145.017 17.0585C145.017 14.4956 146.699 12.9271 149.046 12.9271C151.363 12.9271 152.921 14.5571 152.921 16.9252C152.921 19.7854 150.902 21.0668 148.934 21.0668H148.913C146.729 21.077 145.017 19.5701 145.017 17.0585ZM156.294 37.5102H152.419V45.209C152.419 47.1671 153.106 48.141 154.48 48.141C155.105 48.141 155.628 48.0897 156.038 47.9769L156.13 50.6526C155.443 50.9089 154.521 51.0421 153.393 51.0421C151.999 51.0421 150.912 50.6218 150.133 49.7709C149.354 48.9201 148.954 47.4951 148.954 45.4961V37.5102H146.637V34.8653H148.954V31.9641L152.409 30.9185V34.8653H156.284V37.5102H156.294ZM157.309 15.6848C157.247 15.8488 157.217 16.0846 157.217 16.3101V20.9028H155.248V15.4285C155.248 14.5366 155.218 13.778 155.187 13.1116H156.899L156.991 14.2803H157.042C157.391 13.6755 158.242 12.9374 159.544 12.9374C160.907 12.9374 162.312 13.819 162.312 16.2794V20.9028H160.343V16.5049C160.343 15.3875 159.923 14.5366 158.857 14.5366C158.057 14.5366 157.514 15.0902 157.309 15.6848ZM171.723 48.6638C170.267 50.2733 168.329 51.0729 165.92 51.0729C163.593 51.0729 161.738 50.304 160.364 48.756C158.98 47.2183 158.293 45.2705 158.293 42.923C158.293 40.4626 159 38.4533 160.425 36.8951C161.85 35.3266 163.767 34.5475 166.176 34.5475C168.504 34.5475 170.369 35.3164 171.784 36.8643C173.137 38.3713 173.804 40.2986 173.804 42.6667C173.804 45.1065 173.117 47.1056 171.723 48.6638ZM175.434 9.52363H177.402V14.1675H177.433C177.668 13.7985 178.007 13.4909 178.407 13.2859C178.806 13.0604 179.268 12.9374 179.77 12.9374C181.092 12.9374 182.487 13.819 182.487 16.3101V20.9028H180.518V16.5151C180.518 15.3977 180.098 14.5263 179.011 14.5263C178.242 14.5263 177.699 15.0389 177.474 15.6335C177.412 15.8078 177.392 16.0231 177.392 16.2281V20.9028H175.423V9.52363H175.434ZM185.255 37.9715C184.906 37.91 184.537 37.8792 184.147 37.8792C182.907 37.8792 181.954 38.3508 181.277 39.2837C180.693 40.114 180.395 41.1494 180.395 42.4104V50.7243H176.879L176.91 39.868C176.91 38.0432 176.869 36.3825 176.777 34.8755H179.842L179.975 37.91H180.067C180.436 36.8643 181.031 36.0237 181.831 35.3984C182.61 34.8345 183.46 34.5475 184.373 34.5475C184.701 34.5475 184.988 34.568 185.255 34.609V37.9715ZM184.783 17.12C184.783 14.9569 186.095 12.9271 188.596 12.9271C191.129 12.9271 191.959 15.0082 191.959 16.7202C191.959 17.0892 191.928 17.3763 191.897 17.5505H186.679C186.731 18.955 187.828 19.5701 189.078 19.5701C189.991 19.5701 190.626 19.4266 191.241 19.2215L191.528 20.5645C190.852 20.8515 189.929 21.0565 188.812 21.0565C186.28 21.0565 184.783 19.5086 184.783 17.12ZM200.868 43.6406H190.308C190.349 45.209 190.862 46.3982 191.836 47.2286C192.728 47.9667 193.876 48.3357 195.291 48.3357C196.849 48.3357 198.274 48.0897 199.566 47.5874L200.119 50.0375C198.622 50.6936 196.849 51.0216 194.799 51.0216C192.349 51.0216 190.411 50.2938 189.017 48.8483C187.623 47.4029 186.915 45.4653 186.915 43.0255C186.915 40.6369 187.571 38.6481 188.873 37.0591C190.237 35.3676 192.092 34.5167 194.409 34.5167C196.695 34.5167 198.428 35.3676 199.596 37.0591C200.529 38.4123 200.991 40.073 200.991 42.0516C201.001 42.6769 200.95 43.21 200.868 43.6406Z" fill="white"/>
<path d="M194.153 36.9566C193.005 36.9566 192.072 37.4384 191.355 38.3918C190.77 39.1504 190.422 40.0628 190.319 41.129H197.649C197.67 40.0833 197.444 39.1812 196.962 38.4226C196.347 37.4487 195.414 36.9566 194.153 36.9566Z" fill="white"/>
</svg>
