<svg width="91" height="90" viewBox="0 0 91 90" fill="none" xmlns="http://www.w3.org/2000/svg">
<g clip-path="url(#clip0_75_266)">
<path d="M45.3698 1.06009C21.1598 1.06009 1.46976 20.7501 1.46976 44.9601C1.46976 69.1701 21.1598 88.8601 45.3698 88.8601C69.5798 88.8601 89.2698 69.1701 89.2698 44.9601C89.2598 20.7501 69.5798 1.06009 45.3698 1.06009ZM45.3698 90.3201C20.4298 90.3201 0.00976562 70.0201 0.00976562 44.9601C0.00976562 19.8901 20.3098 -0.399902 45.3698 -0.399902C70.4297 -0.399902 90.7298 19.9001 90.7298 44.9601C90.7298 70.0201 70.3098 90.3201 45.3698 90.3201Z" fill="white"/>
<path d="M34.8493 69.5301C34.6093 69.5301 34.4793 69.5301 34.2393 69.5301C27.6393 69.0401 19.5693 46.1801 19.5693 35.2901C19.5693 30.1501 19.5693 20.5001 29.4693 20.5001C33.1393 20.5001 35.4593 22.4601 37.9093 24.5301C39.4993 25.8801 41.2093 27.3401 43.4093 28.3201C48.5493 30.6401 53.6793 28.3201 53.7993 28.3201L54.8993 30.8901C54.6593 31.0101 48.5393 33.7001 42.3093 30.8901C39.7393 29.7901 37.7893 28.2001 36.0693 26.7301C33.7493 24.9001 32.0393 23.3101 29.4693 23.3101C24.2093 23.3101 22.3793 26.3701 22.3793 35.2901C22.3793 46.6601 30.6893 66.4701 34.4793 66.7101C39.2493 67.0801 50.6193 60.1101 55.9993 49.8401C58.9293 44.2201 58.8093 41.5301 58.0793 40.3001C57.5893 39.3201 56.6093 38.7101 55.0193 38.5901C52.5693 38.2201 49.0293 39.9301 47.8093 40.6701L46.3393 38.2201C46.5793 38.1001 51.4793 35.1601 55.3893 35.7701C57.8393 36.1401 59.6693 37.2401 60.5293 39.0701C61.8693 41.7601 61.2593 45.7901 58.4493 51.1701C53.1893 61.3401 41.3293 69.5301 34.8493 69.5301Z" fill="white"/>
<path d="M56.4898 69.5301C49.8898 69.5301 34.2398 59.3801 30.3198 49.4801C28.4898 44.9601 28.4898 41.0401 30.3198 38.4801C31.5398 36.6501 33.7398 35.5501 36.3098 35.5501C39.4898 35.5501 40.9598 37.2601 42.0598 38.6101C43.1598 39.9501 44.1398 41.0601 46.7098 41.0601V43.8701C42.7998 43.8701 41.2098 41.9101 39.8598 40.4501C38.8798 39.2301 38.1498 38.3701 36.1898 38.3701C34.4798 38.3701 33.2598 38.9801 32.5198 40.0801C31.2998 41.9101 31.4198 44.9701 32.8898 48.5201C36.5598 57.6901 52.3298 67.3501 56.7298 66.7401C60.8898 66.2501 68.2198 46.3201 68.2198 35.3201C68.2198 26.7601 65.8997 23.3401 60.1498 23.3401C54.5298 23.3401 51.0998 26.5201 50.9798 26.5201L49.0198 24.4401C49.1398 24.3201 53.2998 20.4101 60.1498 20.4101C69.9298 20.4101 71.0298 28.8501 71.0298 35.2001C71.0298 45.4701 63.9398 68.5801 56.9698 69.4401C56.8598 69.5301 56.7398 69.5301 56.4898 69.5301Z" fill="white"/>
</g>
<defs>
<clipPath id="clip0_75_266">
<rect width="91" height="90" fill="white" transform="matrix(1 0 0 -1 0 90)"/>
</clipPath>
</defs>
</svg>
