<svg width="93" height="90" viewBox="0 0 93 90" fill="none" xmlns="http://www.w3.org/2000/svg">
<g clip-path="url(#clip0_75_264)">
<path d="M34.5007 75.4001C30.7107 75.4001 29.2407 73.3201 27.6507 70.8801C26.1807 68.4301 24.5907 63.7901 24.5907 55.2301C24.5907 50.3401 23.3707 47.8901 22.0207 45.4501L21.7807 45.0801C20.1907 42.2701 18.8507 39.5801 18.7207 33.7101V32.7301C18.9607 27.4701 20.9207 23.8001 24.5907 21.8501C30.3407 18.7901 36.3307 18.5501 42.0707 21.1201L44.0307 20.5101C44.1507 20.5101 44.2707 20.3901 44.4007 20.3901L45.1307 23.0801L44.8907 22.9601L41.8307 23.9401L41.3407 23.7001C36.2007 21.2501 31.0707 21.3801 25.8107 24.1901C23.1207 25.6601 21.5307 28.5901 21.4107 32.7501V33.6101C21.5307 38.7501 22.6307 40.9501 24.1007 43.6401L24.3407 44.0101C25.8107 46.5801 27.2707 49.6301 27.2707 55.2601C27.2707 63.2101 28.7407 67.3601 29.9607 69.4401C31.3007 71.7601 32.1607 72.6201 34.4807 72.6201C36.6807 72.6201 37.9007 70.6601 38.0307 68.9501C38.1507 67.9701 38.1507 66.8701 38.1507 65.7701C38.1507 63.0801 38.2707 59.9001 39.2507 56.4801C39.3707 56.2401 39.3707 55.9901 39.4907 55.8701C39.8607 54.7701 40.2207 53.4201 41.0807 52.2001C41.5707 51.4701 42.6707 50.6101 43.8907 50.6101C44.7507 50.6101 45.4807 51.1001 46.2107 52.2001C47.0707 53.5501 47.5507 55.1301 48.0407 56.4801C49.0207 59.7801 49.5107 63.6901 49.1407 66.7501C49.0207 68.8301 49.3807 70.3001 50.2407 71.4001C51.2207 72.5001 52.3207 72.5001 52.6907 72.5001C54.8907 72.5001 55.8707 71.4001 57.2107 69.2001C58.3107 67.2401 58.5507 65.4101 59.6607 57.1001L59.9007 55.0201C60.0207 54.4101 61.0007 50.1301 61.7307 48.7801C62.4607 47.3101 63.2007 45.7201 63.6907 44.3801L66.2607 45.3601C65.6507 46.8301 65.0407 48.4201 64.1807 50.0101C63.8107 50.7401 62.9607 54.2901 62.7107 55.5101L62.4707 57.4701C61.3707 66.1501 61.1307 68.2301 59.6607 70.5501C58.0707 73.1201 56.4807 75.2001 52.8107 75.2001C51.9507 75.2001 50.0007 74.9601 48.2907 73.1201C46.8207 71.5301 46.2107 69.3301 46.4607 66.4001C46.7007 63.5901 46.3407 60.1601 45.4807 57.1101C45.1107 55.7701 44.6207 54.5401 44.0107 53.4401C44.0107 53.3201 43.8907 53.3201 43.8907 53.2001C43.7707 53.2001 43.6507 53.3201 43.6507 53.3201L43.5307 53.4401C42.9207 54.3001 42.6707 55.4001 42.3107 56.3701C42.1907 56.6101 42.1907 56.8601 42.0707 56.9801C41.2107 59.9101 41.0907 62.8501 41.0907 65.4201C41.0907 66.5201 41.0907 67.7401 40.9707 68.8401C40.7407 72.1001 38.4207 75.4001 34.5007 75.4001Z" fill="white"/>
<path d="M48.4406 28.6901C48.3206 28.6901 48.3206 28.8101 48.3206 28.8101L54.8006 38.3501L71.1806 19.1501V19.0301C71.1806 19.0301 71.0606 19.0301 71.0606 19.1501L54.8006 32.6001L48.4406 28.6901ZM56.5106 17.3201C48.5606 17.3201 42.0806 23.8001 42.0806 31.6301C42.0806 39.4601 48.5606 45.9401 56.5106 45.9401C64.4606 45.9401 70.8206 39.4601 70.8206 31.6301C70.8206 29.5501 70.3306 27.3501 69.4806 25.3901L57.1306 40.1801C56.6406 40.7901 55.9106 41.1601 54.9306 41.1601C54.0706 41.1601 53.2206 40.6701 52.6106 40.0601L46.0106 30.4001C45.2806 29.4201 45.4006 27.9501 46.2506 26.9801C47.1106 26.0001 48.5706 25.7601 49.8006 26.3701L54.4506 29.1801L65.2106 20.3801C62.7506 18.4201 59.6906 17.3201 56.5106 17.3201ZM56.5106 48.8701C47.1006 48.8701 39.3906 41.1701 39.3906 31.7501C39.3906 22.3401 47.0906 14.6301 56.5106 14.6301C60.4206 14.6301 64.3406 15.9801 67.3906 18.5401L67.1506 18.7801L69.3506 16.9501C70.5706 16.0901 72.1606 16.2201 73.1406 17.0701C74.1206 18.1701 74.2406 19.7601 73.2606 20.8601L69.7106 25.0201L71.7906 24.0401C73.0106 26.3601 73.6206 29.0501 73.6206 31.6201C73.6306 41.1701 65.9306 48.8701 56.5106 48.8701Z" fill="white"/>
<path d="M46.9704 1.06009C22.7604 1.06009 3.07035 20.7501 3.07035 44.9501C3.07035 69.1601 22.7604 88.8501 46.9704 88.8501C71.1804 88.8501 90.8704 69.1601 90.8704 44.9501C90.8704 20.7501 71.1804 1.06009 46.9704 1.06009ZM46.9704 90.3201C22.0304 90.3201 1.61035 70.0201 1.61035 44.9601C1.61035 19.8901 21.9104 -0.399902 46.9704 -0.399902C71.9104 -0.399902 92.3304 19.9001 92.3304 44.9601C92.3404 70.0201 71.9203 90.3201 46.9704 90.3201Z" fill="white"/>
</g>
<defs>
<clipPath id="clip0_75_264">
<rect width="93" height="90" fill="white" transform="matrix(1 0 0 -1 0 90)"/>
</clipPath>
</defs>
</svg>
