<svg width="92" height="96" viewBox="0 0 92 96" fill="none" xmlns="http://www.w3.org/2000/svg">
<path d="M45.97 4.40992C21.44 4.40992 1.49002 24.3599 1.49002 48.8899C1.49002 73.4199 21.44 93.3699 45.97 93.3699C70.5 93.3699 90.45 73.4199 90.45 48.8899C90.45 24.3599 70.5 4.40992 45.97 4.40992ZM45.97 94.8599C20.69 94.8599 0 74.2899 0 48.8899C0 23.4899 20.57 2.91992 45.97 2.91992C71.37 2.91992 91.94 23.4899 91.94 48.8899C91.94 74.2899 71.25 94.8599 45.97 94.8599Z" fill="white"/>
<path d="M34.4501 35.7499C24.1701 35.7499 17.4801 42.5599 17.4801 53.2199C17.4801 63.8799 25.1601 76.6399 34.5801 76.6399C44.2401 76.6399 51.5501 64.2499 51.5501 53.2199C51.5501 41.0799 43.0001 35.7499 34.4501 35.7499ZM34.5701 79.4899C23.3001 79.4899 14.6201 65.3699 14.6201 53.2199C14.6201 41.0699 22.5501 32.8999 34.4401 32.8999C44.3501 32.8999 54.3901 39.2199 54.3901 53.2199C54.4001 65.6099 45.9701 79.4899 34.5701 79.4899Z" fill="white"/>
<path d="M57.3702 64.8699C55.5102 64.8699 53.5302 64.4999 51.4202 63.6299C50.6802 63.3799 50.3002 62.5099 50.6802 61.7699C50.9302 61.0299 51.8002 60.6499 52.5402 61.0299C54.2702 61.7699 55.8902 62.1499 57.3702 62.1499C67.0302 62.1499 74.3402 49.7599 74.3402 38.7299C74.3402 28.0699 67.6502 21.2599 57.3702 21.2599C48.3202 21.2599 41.8802 26.5899 40.5202 35.2599C40.4002 35.9999 39.6502 36.6199 38.9102 36.4999C38.1702 36.3799 37.5502 35.6299 37.6702 34.8899C39.2802 24.9799 46.9602 18.5299 57.2502 18.5299C69.1402 18.5299 77.0702 26.7099 77.0702 38.8499C77.1902 50.9899 68.7702 64.8699 57.3702 64.8699Z" fill="white"/>
<path d="M32.4704 52.6099C32.2204 52.6099 31.8504 52.4899 31.6004 52.3599C27.7604 49.6299 23.5504 51.3699 22.3104 52.3599C21.6904 52.8599 20.8204 52.7299 20.3304 52.1099C19.8304 51.4899 19.9604 50.6199 20.5804 50.1299C22.6904 48.5199 28.1404 46.5399 33.2204 50.1299C33.8404 50.6299 33.9604 51.4899 33.5904 52.1099C33.3304 52.4799 32.9604 52.6099 32.4704 52.6099Z" fill="white"/>
<path d="M47.5798 52.6099C47.3298 52.6099 46.9598 52.4899 46.7098 52.3599C42.8698 49.6299 38.6598 51.3699 37.4198 52.3599C36.7998 52.8599 35.9298 52.7299 35.4398 52.1099C34.9398 51.4899 35.0698 50.6199 35.6898 50.1299C37.7998 48.5199 43.2498 46.5399 48.3298 50.1299C48.9498 50.6299 49.0698 51.4899 48.6998 52.1099C48.4498 52.4799 47.9498 52.6099 47.5798 52.6099Z" fill="white"/>
<path d="M63.3204 37.1199C61.7104 37.1199 60.2204 36.6199 58.9804 35.7599C58.3604 35.2599 58.2404 34.3999 58.6104 33.7799C59.1104 33.1599 59.9704 33.0399 60.5904 33.4099C62.3204 34.6499 64.3104 34.6499 66.5404 33.4099C66.7904 33.2899 67.0404 33.1599 67.4104 33.1599C68.1504 33.1599 68.7704 33.7799 68.7704 34.5199C68.7704 35.1399 68.4004 35.6399 67.9004 35.8799C66.2904 36.7499 64.8004 37.1199 63.3204 37.1199Z" fill="white"/>
<path d="M51.1798 37.1199C49.5698 37.1199 48.0797 36.6199 46.8397 35.7599C46.2197 35.2599 46.0997 34.3999 46.4697 33.7799C46.9697 33.1599 47.8298 33.0399 48.4498 33.4099C50.1798 34.6499 52.1697 34.6499 54.3997 33.4099C54.6497 33.2899 54.8998 33.1599 55.2698 33.1599C56.0098 33.1599 56.6298 33.7799 56.6298 34.5199C56.6298 35.1399 56.2598 35.6399 55.7598 35.8799C54.2698 36.7499 52.6598 37.1199 51.1798 37.1199Z" fill="white"/>
<path d="M34.3295 69.4599C31.8495 69.4599 29.4995 68.7199 27.5195 67.2299C26.8995 66.7299 26.7795 65.8699 27.2695 65.2499C27.7595 64.6299 28.6295 64.5099 29.2495 64.9999C30.7395 66.1199 32.4695 66.7299 34.3295 66.7299C36.8095 66.7299 38.9095 65.6099 39.9095 65.1199C40.1595 64.9999 40.4095 64.8699 40.5295 64.8699C41.2695 64.6199 42.1395 64.9899 42.3895 65.7399C42.6395 66.4799 42.2695 67.2299 41.5195 67.4699C41.5195 67.4699 41.3995 67.5899 41.2695 67.5899C40.2695 67.9699 37.6695 69.4599 34.3295 69.4599Z" fill="white"/>
<path d="M62.4504 54.5899L61.3304 53.8499C58.4804 51.8699 55.6304 52.7299 54.1404 53.4799C53.4004 53.8499 52.5304 53.4799 52.2804 52.8599C51.9104 52.1199 52.2804 51.2499 52.9004 50.9999C54.3904 50.2599 58.1004 49.0199 61.8204 50.8799L62.5604 49.8899C63.0604 49.2699 63.9204 49.1499 64.5404 49.6399C65.1604 50.1399 65.2804 50.9999 64.7904 51.6199L62.4504 54.5899Z" fill="white"/>
</svg>
