<svg width="93" height="96" viewBox="0 0 93 96" fill="none" xmlns="http://www.w3.org/2000/svg">
<path d="M46.97 4.37C22.44 4.37 2.49 24.32 2.49 48.85C2.49 73.38 22.44 93.45 46.97 93.45C71.5 93.45 91.46 73.5 91.46 48.97C91.46 24.44 71.51 4.37 46.97 4.37ZM46.97 94.81C21.69 94.81 1 74.24 1 48.84C1 23.44 21.69 3 46.97 3C72.25 3 92.94 23.57 92.94 48.97C92.94 74.37 72.25 94.81 46.97 94.81Z" fill="white"/>
<path d="M62.2102 32.99V42.16C62.2102 43.15 62.4602 46.25 65.4302 46.25C68.4002 46.25 68.6502 43.15 68.6502 42.16V33.98C68.6502 33.98 68.6502 33.86 68.4002 33.73C67.4202 32.86 64.4502 32.74 62.2102 32.99ZM65.4402 49.09C61.8502 49.09 59.4902 46.36 59.4902 42.15V30.75L60.4802 30.5C62.5902 29.88 67.6702 29.63 70.1402 31.49C71.2602 32.36 71.3802 33.35 71.3802 33.97V42.27C71.3802 46.37 69.0302 49.09 65.4402 49.09Z" fill="white"/>
<path d="M71.3804 34.23V43.4C71.3804 44.39 71.6304 47.49 74.6004 47.49C77.5704 47.49 77.8204 44.39 77.8204 43.4V35.22C77.8204 35.22 77.8204 35.1 77.5704 34.97C76.4604 34.1 73.6104 33.85 71.3804 34.23ZM74.6004 50.33C71.0104 50.33 68.6504 47.6 68.6504 43.39V31.99L69.6404 31.74C71.7504 31.12 76.8304 30.87 79.3004 32.73C80.4104 33.6 80.5404 34.59 80.5404 35.21V43.51C80.5504 47.61 78.2004 50.33 74.6004 50.33Z" fill="white"/>
<path d="M49.4496 30.76V42.16C49.4496 45.38 51.7996 46.99 54.1596 46.99C55.2796 46.99 56.3896 46.62 57.1296 45.87C57.9996 45 58.4896 43.76 58.4896 42.15V30.75H49.4496V30.76ZM54.1596 49.84C50.4396 49.84 46.5996 47.11 46.5996 42.16V28.03H61.2196V42.28C61.2196 45.25 59.9796 46.99 58.9896 47.98C57.7496 49.22 56.0196 49.84 54.1596 49.84Z" fill="white"/>
<path d="M35.5805 30.76V42.16C35.5805 45.38 38.1805 46.99 40.7805 46.99C43.0105 46.99 45.4905 45.75 45.4905 42.16V30.76H35.5805ZM40.7805 49.84C36.9405 49.84 32.8505 47.11 32.7305 42.16V28.03H48.2205V42.28C48.3405 47.48 44.3705 49.84 40.7805 49.84Z" fill="white"/>
<path d="M29.6296 32.86C27.8996 32.86 26.2796 33.11 25.5396 33.73C25.2896 33.85 25.2896 33.98 25.2896 33.98V42.28C25.2896 43.27 25.5396 46.37 28.5096 46.37C31.4796 46.37 31.7296 43.27 31.7296 42.28V33.11C31.1196 32.99 30.3696 32.86 29.6296 32.86ZM28.5096 49.09C24.9196 49.09 22.5596 46.36 22.5596 42.15V33.97C22.5596 33.23 22.8096 32.36 23.7996 31.49C26.1496 29.63 31.3596 30 33.4596 30.5L34.4496 30.75V42.15C34.4596 46.37 32.1096 49.09 28.5096 49.09Z" fill="white"/>
<path d="M20.4604 34.6C18.7304 34.6 17.1104 34.85 16.3704 35.47C16.1204 35.59 16.1204 35.72 16.1204 35.72V43.9C16.1204 44.89 16.3704 47.99 19.3404 47.99C22.3104 47.99 22.5604 44.89 22.5604 43.9V34.72C21.9504 34.6 21.2004 34.6 20.4604 34.6ZM19.3504 50.83C15.7604 50.83 13.4004 48.1 13.4004 43.89V35.59C13.4004 34.85 13.6504 33.86 14.6404 33.11C16.9904 31.25 22.2004 31.62 24.3004 32.12L25.2904 32.37V43.89C25.4204 47.98 22.9404 50.83 19.3504 50.83Z" fill="white"/>
<path d="M62.2102 53.06V62.23C62.2102 63.22 62.4602 66.32 65.4302 66.32C68.4002 66.32 68.6502 63.22 68.6502 62.23V53.93C68.6502 53.93 68.6502 53.81 68.4002 53.68C67.4202 52.93 64.4502 52.69 62.2102 53.06ZM65.4402 69.17C61.8502 69.17 59.4902 66.44 59.4902 62.23V50.83L60.4802 50.58C62.5902 49.96 67.6702 49.71 70.1402 51.57C71.2602 52.44 71.3802 53.43 71.3802 54.05V62.35C71.3802 66.32 69.0302 69.17 65.4402 69.17Z" fill="white"/>
<path d="M71.3804 54.17V63.34C71.3804 64.33 71.6304 67.43 74.6004 67.43C77.5704 67.43 77.8204 64.33 77.8204 63.34V55.04C77.8204 55.04 77.8204 54.92 77.5704 54.79C76.4604 54.05 73.6104 53.93 71.3804 54.17ZM74.6004 70.28C71.0104 70.28 68.6504 67.55 68.6504 63.34V51.94L69.6404 51.69C71.7504 51.07 76.8304 50.82 79.3004 52.68C80.4104 53.55 80.5404 54.54 80.5404 55.16V63.46C80.5504 67.55 78.2004 70.28 74.6004 70.28Z" fill="white"/>
<path d="M49.4496 50.83V62.23C49.4496 65.45 51.7996 67.06 54.1596 67.06C55.2796 67.06 56.3896 66.69 57.1296 65.94C57.9996 65.07 58.4896 63.83 58.4896 62.22V50.82H49.4496V50.83ZM54.1596 69.91C50.4396 69.91 46.5996 67.18 46.5996 62.23V47.98H61.2196V62.23C61.2196 65.2 59.9796 66.94 58.9896 67.93C57.7496 69.17 56.0196 69.91 54.1596 69.91Z" fill="white"/>
<path d="M35.5796 50.83V62.23C35.5796 65.45 38.1796 67.06 40.7796 67.06C43.0096 67.06 45.4896 65.82 45.4896 62.23V50.83H35.5796ZM40.7796 69.91C36.9396 69.91 32.8496 67.18 32.8496 62.23V47.98H48.3396V62.23C48.3396 67.43 44.3696 69.91 40.7796 69.91Z" fill="white"/>
<path d="M29.6296 52.81C27.8996 52.81 26.2796 53.06 25.5396 53.68C25.2896 53.8 25.2896 53.93 25.2896 53.93V62.23C25.2896 63.22 25.5396 66.32 28.5096 66.32C31.4796 66.32 31.7296 63.22 31.7296 62.23V53.06C31.1196 52.93 30.3696 52.81 29.6296 52.81ZM28.5096 69.17C24.9196 69.17 22.5596 66.44 22.5596 62.23V53.93C22.5596 53.19 22.8096 52.32 23.7996 51.45C26.1496 49.59 31.3596 49.96 33.4596 50.46L34.4496 50.71V62.11C34.4596 66.32 32.1096 69.17 28.5096 69.17Z" fill="white"/>
<path d="M20.4604 54.54C18.7304 54.54 17.1104 54.79 16.3704 55.41C16.1204 55.53 16.1204 55.66 16.1204 55.66V63.96C16.1204 64.95 16.3704 68.05 19.3404 68.05C22.3104 68.05 22.5604 64.95 22.5604 63.96V54.79C21.9504 54.54 21.2004 54.54 20.4604 54.54ZM19.3504 70.78C15.7604 70.78 13.4004 68.05 13.4004 63.84V55.54C13.4004 54.8 13.6504 53.81 14.6404 53.06C16.9904 51.2 22.2004 51.57 24.3004 52.07L25.2904 52.32V63.72C25.4204 68.05 22.9404 70.78 19.3504 70.78Z" fill="white"/>
</svg>
