<svg width="45" height="40" viewBox="0 0 45 40" fill="none" xmlns="http://www.w3.org/2000/svg">
<path fill-rule="evenodd" clip-rule="evenodd" d="M39.8046 38.5546C38.8411 39.5181 37.6562 39.9999 36.2499 39.9999C34.8437 39.9999 33.6588 39.5181 32.6952 38.5546C31.7317 37.5911 31.2499 36.4062 31.2499 34.9999C31.2499 34.1145 31.4843 33.2812 31.953 32.4999H20.5468C21.0156 33.2812 21.2499 34.1145 21.2499 34.9999C21.2499 36.4062 20.7682 37.5911 19.8046 38.5546C18.8411 39.5181 17.6562 39.9999 16.25 39.9999C14.8437 39.9999 13.6588 39.5181 12.6953 38.5546C11.7317 37.5911 11.25 36.4322 11.25 35.078C11.25 33.7239 11.6927 32.578 12.5781 31.6405L7.10936 2.49999H0.937498C0.677082 2.49999 0.455728 2.40885 0.273437 2.22656C0.091146 2.04427 0 1.82291 0 1.5625V0.937498C0 0.677082 0.091146 0.455728 0.273437 0.273437C0.455728 0.091146 0.677082 0 0.937498 0H7.57811C8.04686 0 8.4505 0.143228 8.78904 0.429686C9.12758 0.716145 9.34894 1.09375 9.4531 1.5625L10.0781 4.99999H43.1249C43.6978 4.99999 44.1796 5.23436 44.5702 5.70311C44.9608 6.17186 45.078 6.69269 44.9218 7.26561L41.5624 23.5156C41.4582 23.9322 41.2369 24.2838 40.8983 24.5703C40.5598 24.8567 40.1822 24.9999 39.7655 24.9999H13.8281L14.7656 29.9999H37.8905C38.3593 29.9999 38.7629 30.1301 39.1015 30.3906C39.44 30.651 39.6614 30.9895 39.7655 31.4062C40.7551 32.3958 41.2499 33.5937 41.2499 34.9999C41.2499 36.4062 40.7681 37.5911 39.8046 38.5546ZM13.3593 22.4999H39.2187L42.3437 7.49998H10.5469L13.3593 22.4999ZM16.25 37.4999C15.5729 37.4999 14.9869 37.2525 14.4922 36.7577C13.9974 36.2629 13.75 35.677 13.75 34.9999C13.75 34.3228 13.9974 33.7369 14.4922 33.2421C14.9869 32.7473 15.5729 32.4999 16.25 32.4999C16.927 32.4999 17.513 32.7473 18.0078 33.2421C18.5026 33.7369 18.75 34.3228 18.75 34.9999C18.75 35.677 18.5026 36.2629 18.0078 36.7577C17.513 37.2525 16.927 37.4999 16.25 37.4999ZM34.4921 36.7577C34.9869 37.2525 35.5728 37.4999 36.2499 37.4999C36.927 37.4999 37.5129 37.2525 38.0077 36.7577C38.5025 36.2629 38.7499 35.677 38.7499 34.9999C38.7499 34.3228 38.5025 33.7369 38.0077 33.2421C37.5129 32.7473 36.927 32.4999 36.2499 32.4999C35.5728 32.4999 34.9869 32.7473 34.4921 33.2421C33.9973 33.7369 33.7499 34.3228 33.7499 34.9999C33.7499 35.677 33.9973 36.2629 34.4921 36.7577Z" fill="black"/>
</svg>
