<svg width="60" height="74" viewBox="0 0 60 74" fill="none" xmlns="http://www.w3.org/2000/svg">
<path d="M37.2456 21.4312C37.2731 21.3388 37.2868 21.2429 37.2863 21.1465V20.2067C37.7095 20.0114 38.0783 19.7153 38.3603 19.3442C39.833 17.4403 38.2993 14.6902 37.6809 13.7383C37.7379 12.347 37.8803 7.70515 37.2293 5.82565C36.3791 3.38473 33.1611 2.5711 33.0269 2.52228L28.8367 1.54591C28.3688 0.996706 27.3274 0 25.9076 0C25.3753 0.0156706 24.8518 0.139116 24.3686 0.362873C23.8855 0.58663 23.4527 0.90605 23.0965 1.30182C21.6848 1.50116 17.1203 2.33514 15.2855 4.96319C13.4508 7.59124 13.467 12.3673 13.5037 13.6203C13.0033 14.5763 11.6608 17.6885 13.7355 20.1294C14.0416 20.5146 14.4316 20.8248 14.8758 21.0363C15.32 21.2478 15.8066 21.355 16.2985 21.3499C17.8973 21.3499 19.61 20.3247 21.0013 19.4988C21.6034 19.1368 22.177 18.7991 22.6815 18.5591C25.1427 17.4078 27.3559 17.4037 29.6584 18.5591C31.5542 19.5029 33.5476 20.3532 35.2359 20.4915V20.9837C34.1864 24.4946 30.5453 33.1313 25.6594 33.1313C19.7158 33.1313 17.1162 24.6126 17.0959 24.4783C17.0589 24.3502 16.9971 24.2307 16.9138 24.1266C16.8306 24.0225 16.7277 23.9358 16.6109 23.8716C16.4941 23.8073 16.3658 23.7668 16.2333 23.7522C16.1008 23.7376 15.9667 23.7494 15.8388 23.7867C15.7102 23.8237 15.5902 23.8857 15.4856 23.9691C15.381 24.0525 15.2939 24.1558 15.2293 24.2729C15.1647 24.3901 15.1238 24.5188 15.109 24.6518C15.0942 24.7848 15.1058 24.9194 15.1431 25.0479C15.7006 26.7982 16.4871 28.4671 17.4824 30.011C19.6873 33.3836 22.5106 35.1654 25.6594 35.1654C33.1612 35.1817 37.0829 21.9926 37.2456 21.4312ZM16.9942 6.13483C18.3204 4.22278 22.3235 3.42135 23.7555 3.2871C23.8964 3.27223 24.0328 3.22842 24.156 3.15842C24.2792 3.08841 24.3866 2.99372 24.4715 2.88028C24.4715 2.88028 25.1143 2.06664 25.9198 2.06664C26.5829 2.06664 27.2501 2.80705 27.4291 3.06335C27.5736 3.26958 27.7897 3.41461 28.0352 3.47017L32.5713 4.5279C33.1612 4.67435 34.9227 5.34154 35.3295 6.52131C35.7363 7.70109 35.7363 10.915 35.6956 12.9043C32.505 11.5071 29.0651 10.7682 25.5821 10.7319C22.071 10.7677 18.6238 11.675 15.55 13.3721C15.5134 11.6228 15.7086 7.95331 16.9942 6.13483ZM21.8557 16.7447C21.2188 17.0573 20.5982 17.4021 19.9965 17.778C17.4417 19.2995 16.1602 19.8121 15.3262 18.8235C15.0459 18.466 14.8495 18.0501 14.7516 17.6064C14.6538 17.1628 14.6569 16.7028 14.7607 16.2606C14.8154 16.2348 14.8672 16.2035 14.9153 16.167C14.9601 16.1344 19.549 12.7375 25.5821 12.7375C29.3277 12.7976 33.0088 13.7221 36.3384 15.4388C36.8103 16.3297 37.2212 17.5176 36.7737 18.1034C36.3262 18.6893 34.9064 18.9171 30.6023 16.7528C27.7179 15.3289 24.858 15.3249 21.8353 16.7447H21.8557Z" fill="#A8A8A8"/>
<path d="M24.4301 40.2956L17.7664 35.7474C17.5576 35.6061 17.3042 35.5468 17.0544 35.5806C16.6069 35.6456 6.07031 37.2078 2.75066 41.7195C-0.467274 46.1172 -0.00349864 61.8489 0.0575242 63.6267C0.0670106 63.89 0.178337 64.1394 0.368052 64.3223C0.557767 64.5052 0.81106 64.6073 1.07457 64.6071H1.1112C1.24478 64.6024 1.37611 64.5714 1.4977 64.5158C1.6193 64.4603 1.72877 64.3814 1.81983 64.2835C1.91089 64.1857 1.98176 64.0708 2.0284 63.9455C2.07504 63.8203 2.09652 63.687 2.09162 63.5534C1.92482 58.9157 2.01841 46.166 4.39423 42.9236C6.62767 39.8684 13.8731 38.1476 16.9527 37.635L22.3309 41.2964L19.3814 44.6323L16.9405 41.3777C16.8607 41.2704 16.7605 41.18 16.6456 41.1116C16.5306 41.0433 16.4033 40.9984 16.2709 40.9794C16.1386 40.9605 16.0038 40.968 15.8743 41.0015C15.7449 41.0349 15.6233 41.0937 15.5166 41.1743C15.4098 41.2545 15.3198 41.3549 15.2517 41.4698C15.1837 41.5847 15.1389 41.7119 15.1201 41.8441C15.1012 41.9763 15.1085 42.111 15.1417 42.2404C15.1748 42.3697 15.2331 42.4913 15.3132 42.5982L18.4946 46.8372C18.5851 46.9582 18.7014 47.0575 18.8351 47.1279C18.9688 47.1982 19.1166 47.2379 19.2675 47.2441C19.42 47.2513 19.5722 47.2243 19.713 47.1652C19.8538 47.1061 19.9796 47.0163 20.0812 46.9023L24.6213 41.7642C24.7199 41.6551 24.7932 41.5257 24.8361 41.3851C24.879 41.2444 24.8904 41.0961 24.8694 40.9506C24.8437 40.8176 24.7916 40.6911 24.7161 40.5786C24.6406 40.4661 24.5434 40.3698 24.4301 40.2956Z" fill="#A8A8A8"/>
<path d="M32.3877 47.2891C32.5386 47.2829 32.6863 47.2433 32.82 47.1729C32.9537 47.1025 33.0701 47.0032 33.1606 46.8823L36.3419 42.6432C36.5027 42.427 36.5716 42.1561 36.5335 41.8894C36.4954 41.6227 36.3534 41.3818 36.1385 41.2193C36.0319 41.1387 35.9103 41.0799 35.7809 41.0465C35.6514 41.013 35.5166 41.0056 35.3842 41.0245C35.2519 41.0434 35.1245 41.0883 35.0096 41.1567C34.8947 41.225 34.7945 41.3155 34.7147 41.4228L32.2737 44.6773L29.3243 41.3414L34.7025 37.68C37.778 38.1723 45.0275 39.8931 47.261 42.9687C47.6678 43.5301 48.2658 44.7668 48.7499 47.4762C48.7919 47.7111 48.9152 47.9238 49.0981 48.077C49.2811 48.2302 49.5121 48.3142 49.7507 48.3143C49.8102 48.3201 49.8702 48.3201 49.9297 48.3143C50.1936 48.2648 50.4272 48.113 50.5796 47.892C50.732 47.671 50.7909 47.3987 50.7433 47.1345C50.2918 44.6163 49.6897 42.867 48.8964 41.7808C45.5767 37.2488 35.0401 35.7069 34.5926 35.6419C34.3416 35.6086 34.0871 35.6679 33.8766 35.8086L27.217 40.3406C27.0976 40.422 26.9969 40.528 26.9218 40.6515C26.8468 40.775 26.799 40.9131 26.7817 41.0566C26.7607 41.2021 26.7721 41.3505 26.815 41.4911C26.8579 41.6317 26.9313 41.7612 27.0298 41.8703L31.57 47.0084C31.6774 47.1121 31.8063 47.191 31.9476 47.2395C32.0889 47.288 32.2391 47.305 32.3877 47.2891V47.2891Z" fill="#A8A8A8"/>
<path d="M58.8951 50.6289H28.7905C28.5207 50.6289 28.2621 50.7361 28.0713 50.9268C27.8806 51.1175 27.7734 51.3762 27.7734 51.646V72.6134C27.7734 72.8831 27.8806 73.1418 28.0713 73.3326C28.2621 73.5233 28.5207 73.6305 28.7905 73.6305H58.8951C59.1648 73.6305 59.4235 73.5233 59.6143 73.3326C59.805 73.1418 59.9121 72.8831 59.9121 72.6134V51.646C59.9121 51.3762 59.805 51.1175 59.6143 50.9268C59.4235 50.7361 59.1648 50.6289 58.8951 50.6289V50.6289ZM46.9021 52.663V58.3585H41.2066V52.663H46.9021ZM57.8862 71.5964H29.8157V52.663H39.2132V59.3674C39.2132 59.6371 39.3203 59.8958 39.5111 60.0865C39.7018 60.2773 39.9605 60.3844 40.2302 60.3844H47.9598C48.2295 60.3844 48.4882 60.2773 48.679 60.0865C48.8697 59.8958 48.9768 59.6371 48.9768 59.3674V52.663H57.9269L57.8862 71.5964Z" fill="#A8A8A8"/>
</svg>
