<svg width="75" height="62" viewBox="0 0 75 62" fill="none" xmlns="http://www.w3.org/2000/svg">
<path d="M4.63197 16.3222H6.29587C6.53648 16.3222 6.76723 16.2267 6.93736 16.0565C7.1075 15.8864 7.20307 15.6556 7.20307 15.415C7.20307 15.1744 7.1075 14.9437 6.93736 14.7735C6.76723 14.6034 6.53648 14.5078 6.29587 14.5078H4.63197C4.5125 14.5073 4.39409 14.5304 4.28356 14.5757C4.17302 14.6211 4.07253 14.6878 3.98785 14.7721C3.90318 14.8564 3.836 14.9566 3.79015 15.0669C3.74431 15.1772 3.7207 15.2955 3.7207 15.415C3.7207 15.5345 3.74431 15.6528 3.79015 15.7631C3.836 15.8735 3.90318 15.9737 3.98785 16.058C4.07253 16.1423 4.17302 16.209 4.28356 16.2543C4.39409 16.2997 4.5125 16.3228 4.63197 16.3222Z" fill="#A8A8A8"/>
<path d="M9.20993 16.3222H27.9928C28.1119 16.3222 28.2299 16.2988 28.34 16.2532C28.45 16.2076 28.55 16.1408 28.6343 16.0565C28.7185 15.9723 28.7853 15.8723 28.8309 15.7622C28.8765 15.6521 28.9 15.5342 28.9 15.415C28.9 15.2959 28.8765 15.1779 28.8309 15.0678C28.7853 14.9578 28.7185 14.8578 28.6343 14.7735C28.55 14.6893 28.45 14.6225 28.34 14.5769C28.2299 14.5313 28.1119 14.5078 27.9928 14.5078H9.20993C8.96933 14.5078 8.73858 14.6034 8.56844 14.7735C8.39831 14.9437 8.30273 15.1744 8.30273 15.415C8.30273 15.6556 8.39831 15.8864 8.56844 16.0565C8.73858 16.2266 8.96933 16.3222 9.20993 16.3222Z" fill="#A8A8A8"/>
<path d="M21.3365 24.2676H13.4482C13.2076 24.2676 12.9769 24.3632 12.8067 24.5333C12.6366 24.7034 12.541 24.9342 12.541 25.1748C12.541 25.4154 12.6366 25.6461 12.8067 25.8163C12.9769 25.9864 13.2076 26.082 13.4482 26.082H21.3365C21.5771 26.082 21.8078 25.9864 21.978 25.8163C22.1481 25.6461 22.2437 25.4154 22.2437 25.1748C22.2437 24.9342 22.1481 24.7034 21.978 24.5333C21.8078 24.3632 21.5771 24.2676 21.3365 24.2676Z" fill="#A8A8A8"/>
<path d="M15.8323 34.9472C15.8323 34.7066 15.7367 34.4759 15.5666 34.3058C15.3964 34.1356 15.1657 34.04 14.9251 34.04H0.98338C0.742773 34.04 0.512024 34.1356 0.34189 34.3058C0.171755 34.4759 0.076181 34.7066 0.076181 34.9472C0.0756452 35.0667 0.0987155 35.1851 0.144067 35.2957C0.189418 35.4062 0.256154 35.5067 0.34045 35.5914C0.424745 35.676 0.524926 35.7432 0.635259 35.7891C0.745593 35.8349 0.8639 35.8585 0.98338 35.8585H14.9251C15.0446 35.8585 15.1628 35.8349 15.2732 35.7891C15.3835 35.7432 15.4837 35.676 15.568 35.5914C15.6523 35.5067 15.719 35.4062 15.7644 35.2957C15.8097 35.1851 15.8328 35.0667 15.8323 34.9472V34.9472Z" fill="#A8A8A8"/>
<path d="M20.9982 43.8233H11.3566C11.2371 43.8227 11.1187 43.8458 11.0082 43.8911C10.8976 43.9365 10.7971 44.0032 10.7125 44.0875C10.6278 44.1718 10.5606 44.272 10.5148 44.3823C10.4689 44.4927 10.4453 44.611 10.4453 44.7305C10.4453 44.8499 10.4689 44.9682 10.5148 45.0786C10.5606 45.1889 10.6278 45.2891 10.7125 45.3734C10.7971 45.4577 10.8976 45.5244 11.0082 45.5698C11.1187 45.6151 11.2371 45.6382 11.3566 45.6377H20.9941C21.2347 45.6377 21.4655 45.5421 21.6356 45.3719C21.8058 45.2018 21.9013 44.9711 21.9013 44.7305C21.9013 44.4906 21.8063 44.2604 21.6371 44.0904C21.4678 43.9204 21.2381 43.8243 20.9982 43.8233Z" fill="#A8A8A8"/>
<path d="M39.7407 52.521C39.6763 52.6385 39.6357 52.7675 39.6213 52.9007C39.6069 53.0339 39.6189 53.1686 39.6567 53.2972C39.6945 53.4257 39.7573 53.5455 39.8416 53.6497C39.9258 53.7538 40.0298 53.8404 40.1476 53.9042C43.017 55.362 46.1882 56.127 49.4068 56.1377C54.7823 56.1312 59.9357 53.9929 63.7368 50.1919C67.5379 46.3908 69.6762 41.2373 69.6826 35.8618C69.6772 30.486 67.5393 25.3318 63.738 21.5305C59.9367 17.7292 54.7826 15.5913 49.4068 15.5859C37.3934 15.5859 29.2245 26.0615 29.1309 35.8496C29.1287 36.119 29.2331 36.3784 29.4213 36.5712C29.6096 36.764 29.8663 36.8746 30.1357 36.8788V36.8788C30.4041 36.8789 30.6615 36.7728 30.852 36.5838C31.0425 36.3949 31.1506 36.1383 31.1528 35.8699C31.2585 24.9509 40.6683 17.62 49.3946 17.62C54.2312 17.6243 58.8686 19.5476 62.2887 22.9677C65.7087 26.3877 67.632 31.0251 67.6363 35.8618C67.6309 40.6982 65.7073 45.3349 62.2875 48.7547C58.8677 52.1746 54.2309 54.0982 49.3946 54.1036C46.5162 54.0995 43.6791 53.4195 41.1117 52.1183C40.8761 51.9917 40.6002 51.963 40.3436 52.0383C40.087 52.1137 39.8704 52.2871 39.7407 52.521Z" fill="#A8A8A8"/>
<path d="M45.3587 7.39721H45.7289V8.7031C45.7283 8.83735 45.7544 8.97037 45.8055 9.0945C45.8566 9.21863 45.9318 9.33141 46.0268 9.42634C46.1217 9.52127 46.2345 9.59646 46.3586 9.64759C46.4827 9.69871 46.6157 9.72476 46.75 9.72422C47.0197 9.72422 47.2784 9.61707 47.4692 9.42633C47.6599 9.2356 47.767 8.97691 47.767 8.70717V6.38017C47.767 6.11043 47.6599 5.85174 47.4692 5.661C47.2784 5.47027 47.0197 5.36312 46.75 5.36312H46.3798V2.54386H52.181V5.36312H51.9858C51.716 5.36312 51.4573 5.47027 51.2666 5.661C51.0759 5.85174 50.9687 6.11043 50.9687 6.38017V8.50376C50.9687 8.7735 51.0759 9.03219 51.2666 9.22292C51.4573 9.41366 51.716 9.52081 51.9858 9.52081C52.2555 9.52081 52.5142 9.41366 52.7049 9.22292C52.8956 9.03219 53.0028 8.7735 53.0028 8.50376V7.40535H53.1981C53.4678 7.40535 53.7265 7.2982 53.9172 7.10746C54.108 6.91673 54.2151 6.65804 54.2151 6.3883V1.52681C54.2151 1.25708 54.108 0.998385 53.9172 0.807651C53.7265 0.616918 53.4678 0.509766 53.1981 0.509766H45.3628C45.093 0.509766 44.8343 0.616918 44.6436 0.807651C44.4528 0.998385 44.3457 1.25708 44.3457 1.52681V6.38017C44.3457 6.6492 44.4523 6.90728 44.6421 7.09789C44.832 7.28851 45.0896 7.39614 45.3587 7.39721V7.39721Z" fill="#A8A8A8"/>
<path d="M49.3263 9.97656C42.5208 9.98517 35.9964 12.6925 31.1842 17.5047C26.372 22.317 23.6647 28.8413 23.656 35.6468C23.6523 38.4267 24.1016 41.1886 24.9863 43.8239H23.5869C23.3463 43.8239 23.1155 43.9195 22.9454 44.0896C22.7753 44.2598 22.6797 44.4905 22.6797 44.7311C22.6797 44.9717 22.7753 45.2025 22.9454 45.3726C23.1155 45.5427 23.3463 45.6383 23.5869 45.6383H26.1336C26.2846 45.6749 26.4422 45.6749 26.5933 45.6383H35.8443C36.085 45.6383 36.3157 45.5427 36.4858 45.3726C36.656 45.2025 36.7515 44.9717 36.7515 44.7311C36.7515 44.4905 36.656 44.2598 36.4858 44.0896C36.3157 43.9195 36.085 43.8239 35.8443 43.8239H27.1466C26.1814 41.2058 25.6883 38.4372 25.6901 35.6468C25.6977 29.3805 28.1903 23.3729 32.6214 18.9419C37.0524 14.5108 43.0599 12.0182 49.3263 12.0107C55.5927 12.0182 61.6003 14.5108 66.0313 18.9419C70.4623 23.3729 72.955 29.3805 72.9625 35.6468C72.9561 41.9139 70.4639 47.9226 66.0328 52.3545C61.6016 56.7864 55.5934 59.2796 49.3263 59.2871C41.0598 59.2871 34.213 55.8007 30.0512 49.4787C29.9784 49.3667 29.8841 49.2702 29.7737 49.1947C29.6634 49.1193 29.5393 49.0665 29.4084 49.0392C29.2776 49.012 29.1426 49.0109 29.0114 49.0361C28.8801 49.0612 28.7551 49.1121 28.6436 49.1858C28.4188 49.3351 28.262 49.5671 28.2071 49.8314C28.1523 50.0957 28.2039 50.371 28.3507 50.5974C32.9031 57.5134 40.3519 61.3212 49.3263 61.3212C56.1329 61.3137 62.6585 58.6061 67.4711 53.7928C72.2837 48.9794 74.9901 42.4534 74.9966 35.6468C74.9891 28.841 72.2821 22.316 67.4696 17.5035C62.6572 12.6911 56.1322 9.9841 49.3263 9.97656V9.97656Z" fill="#A8A8A8"/>
<path d="M49.2821 32.7656C48.444 32.7667 47.6407 33.1001 47.0481 33.6926C46.4555 34.2852 46.1222 35.0886 46.1211 35.9266C46.1222 36.765 46.4554 37.5688 47.0479 38.162C47.6403 38.7552 48.4437 39.0895 49.2821 39.0917C49.7144 39.0919 50.1421 39.0028 50.5384 38.8298C50.9346 38.6569 51.2908 38.404 51.5847 38.0868L58.9562 42.334C59.1633 42.4473 59.4062 42.4758 59.6338 42.4135C59.8614 42.3513 60.056 42.2032 60.1767 42.0004C60.2366 41.8973 60.2756 41.7834 60.2915 41.6653C60.3073 41.5471 60.2997 41.427 60.2691 41.3117C60.2385 41.1965 60.1855 41.0884 60.1131 40.9937C60.0407 40.8989 59.9503 40.8194 59.8472 40.7596L52.3983 36.4595C52.429 36.2835 52.4454 36.1053 52.4471 35.9266C52.445 35.0882 52.1107 34.2848 51.5175 33.6924C50.9243 33.0999 50.1205 32.7667 49.2821 32.7656ZM49.2821 37.0576C48.9828 37.0565 48.6962 36.9369 48.485 36.7249C48.2738 36.5129 48.1552 36.2259 48.1552 35.9266C48.1563 35.6281 48.2753 35.3421 48.4864 35.131C48.6975 34.9199 48.9835 34.8008 49.2821 34.7997C49.5813 34.7997 49.8684 34.9183 50.0804 35.1295C50.2923 35.3407 50.412 35.6274 50.413 35.9266C50.412 36.2262 50.2925 36.5133 50.0806 36.7251C49.8687 36.937 49.5817 37.0565 49.2821 37.0576V37.0576Z" fill="#A8A8A8"/>
<path d="M66.0739 14.163L67.2943 12.6822C67.4652 12.4736 67.5471 12.2061 67.5222 11.9377C67.5103 11.8048 67.4721 11.6757 67.41 11.5577C67.3478 11.4397 67.2629 11.3351 67.1601 11.2502L67.0584 11.1688L68.3236 9.64322L71.749 12.491L70.4838 14.0165C70.2752 13.8489 70.0091 13.77 69.7428 13.7966C69.4765 13.8232 69.2313 13.9533 69.06 14.1589L67.9452 15.5096C67.7732 15.7173 67.6906 15.9848 67.7158 16.2534C67.741 16.5219 67.8718 16.7695 68.0795 16.9416C68.262 17.091 68.4905 17.1729 68.7264 17.1734C68.8761 17.1737 69.024 17.141 69.1597 17.0778C69.2954 17.0145 69.4155 16.9222 69.5115 16.8073L69.9793 16.2418C70.1873 16.4092 70.4528 16.488 70.7184 16.4614C70.984 16.4348 71.2285 16.3048 71.3992 16.0994L73.9621 13.0076C74.048 12.905 74.1128 12.7864 74.1526 12.6586C74.1924 12.5308 74.2065 12.3964 74.194 12.2631C74.1814 12.13 74.1425 12.0008 74.0797 11.8828C74.0168 11.7648 73.9312 11.6604 73.8279 11.5756L68.8362 7.43826C68.6276 7.26738 68.3602 7.18553 68.0917 7.21044C67.8237 7.23538 67.5764 7.36558 67.4042 7.57251L64.8412 10.6643C64.6703 10.8729 64.5885 11.1404 64.6134 11.4088C64.6253 11.5417 64.6635 11.6708 64.7256 11.7888C64.7878 11.9068 64.8727 12.0114 64.9755 12.0963L65.0772 12.1818L64.4995 12.8774C64.3274 13.0851 64.2449 13.3527 64.2701 13.6212C64.2952 13.8898 64.4261 14.1373 64.6338 14.3094C64.7376 14.3952 64.8574 14.4595 64.9862 14.4986C65.1151 14.5377 65.2505 14.5508 65.3844 14.5372C65.5184 14.5236 65.6483 14.4835 65.7667 14.4192C65.885 14.355 65.9895 14.2679 66.0739 14.163V14.163Z" fill="#A8A8A8"/>
</svg>
