<svg width="35" height="26" viewBox="0 0 35 26" fill="none" xmlns="http://www.w3.org/2000/svg">
<path fill-rule="evenodd" clip-rule="evenodd" d="M8.12498 10.5C8.64581 10.5 9.08852 10.3177 9.4531 9.95316C9.81769 9.58858 9.99998 9.14587 9.99998 8.62504V2.37506C9.99998 1.85422 9.81769 1.41152 9.4531 1.04693C9.08852 0.682352 8.64581 0.500061 8.12498 0.500061H1.875C1.35416 0.500061 0.911457 0.682352 0.546874 1.04693C0.182291 1.41152 0 1.85422 0 2.37506V8.62504C0 9.14587 0.182291 9.58858 0.546874 9.95316C0.911457 10.3177 1.35416 10.5 1.875 10.5H8.12498ZM21.9531 9.95316C21.5885 10.3177 21.1458 10.5 20.625 10.5H14.375C13.8541 10.5 13.4114 10.3177 13.0468 9.95316C12.6823 9.58858 12.5 9.14587 12.5 8.62504V2.37506C12.5 1.85422 12.6823 1.41152 13.0468 1.04693C13.4114 0.682352 13.8541 0.500061 14.375 0.500061H20.625C21.1458 0.500061 21.5885 0.682352 21.9531 1.04693C22.3177 1.41152 22.4999 1.85422 22.4999 2.37506V8.62504C22.4999 9.14587 22.3177 9.58858 21.9531 9.95316ZM34.453 9.95316C34.0885 10.3177 33.6458 10.5 33.1249 10.5H26.8749C26.3541 10.5 25.9114 10.3177 25.5468 9.95316C25.1822 9.58858 24.9999 9.14587 24.9999 8.62504V2.37506C24.9999 1.85422 25.1822 1.41152 25.5468 1.04693C25.9114 0.682352 26.3541 0.500061 26.8749 0.500061H33.1249C33.6458 0.500061 34.0885 0.682352 34.453 1.04693C34.8176 1.41152 34.9999 1.85422 34.9999 2.37506V8.62504C34.9999 9.14587 34.8176 9.58858 34.453 9.95316ZM27.4999 8.00004H32.4999V3.00006H27.4999V8.00004ZM20 8.00004H15V3.00006H20V8.00004ZM2.49999 8.00004H7.49998V3.00006H2.49999V8.00004ZM33.1249 25.5C33.6458 25.5 34.0885 25.3177 34.453 24.9531C34.8176 24.5885 34.9999 24.1458 34.9999 23.625V17.375C34.9999 16.8542 34.8176 16.4115 34.453 16.0469C34.0885 15.6823 33.6458 15.5 33.1249 15.5H26.8749C26.3541 15.5 25.9114 15.6823 25.5468 16.0469C25.1822 16.4115 24.9999 16.8542 24.9999 17.375V23.625C24.9999 24.1458 25.1822 24.5885 25.5468 24.9531C25.9114 25.3177 26.3541 25.5 26.8749 25.5H33.1249ZM21.9531 24.9531C21.5885 25.3177 21.1458 25.5 20.625 25.5H14.375C13.8541 25.5 13.4114 25.3177 13.0468 24.9531C12.6823 24.5885 12.5 24.1458 12.5 23.625V17.375C12.5 16.8542 12.6823 16.4115 13.0468 16.0469C13.4114 15.6823 13.8541 15.5 14.375 15.5H20.625C21.1458 15.5 21.5885 15.6823 21.9531 16.0469C22.3177 16.4115 22.4999 16.8542 22.4999 17.375V23.625C22.4999 24.1458 22.3177 24.5885 21.9531 24.9531ZM8.12498 25.5C8.64581 25.5 9.08852 25.3177 9.4531 24.9531C9.81769 24.5885 9.99998 24.1458 9.99998 23.625V17.375C9.99998 16.8542 9.81769 16.4115 9.4531 16.0469C9.08852 15.6823 8.64581 15.5 8.12498 15.5H1.875C1.35416 15.5 0.911457 15.6823 0.546874 16.0469C0.182291 16.4115 0 16.8542 0 17.375V23.625C0 24.1458 0.182291 24.5885 0.546874 24.9531C0.911457 25.3177 1.35416 25.5 1.875 25.5H8.12498ZM27.4999 23H32.4999V18H27.4999V23ZM20 23H15V18H20V23ZM2.49999 23H7.49998V18H2.49999V23Z" fill="white"/>
</svg>
