<svg width="23" height="23" viewBox="0 0 23 23" fill="none" xmlns="http://www.w3.org/2000/svg">
<path d="M19.0629 3.502C16.9514 1.39053 14.1503 0.228516 11.1649 0.228516C8.17957 0.228516 5.37845 1.39053 3.26698 3.502C-0.81425 7.58324 -1.09767 14.116 2.56316 18.5232C2.20416 19.2459 1.62788 20.0867 0.772895 20.5071C0.361938 20.7103 0.130479 21.1496 0.201334 21.603C0.272189 22.0565 0.621739 22.4108 1.07521 22.4816C1.28777 22.5147 1.59009 22.5478 1.95853 22.5478C2.94577 22.5478 4.40066 22.3163 5.88861 21.244C7.54661 22.1368 9.36049 22.5714 11.1602 22.5714C14.0511 22.5714 16.9136 21.4519 19.0676 19.2979C21.1791 17.1864 22.3411 14.3853 22.3411 11.3999C22.3411 8.4146 21.1743 5.61347 19.0629 3.502ZM18.1606 18.3957C14.9722 21.5841 10.036 22.2171 6.15313 19.9356C5.89805 19.7844 5.58157 19.8317 5.37845 20.0348C5.35956 20.0442 5.34066 20.0584 5.32649 20.0726C4.04638 21.0645 2.78989 21.2724 1.95853 21.2724H1.95381C2.91271 20.5733 3.51733 19.5341 3.87161 18.7263C3.92829 18.5893 3.93774 18.4476 3.90467 18.3154C3.8905 18.1878 3.83854 18.0603 3.74879 17.9564C0.291083 14.0499 0.470582 8.09811 4.16447 4.40422C8.02369 0.545 14.3014 0.545 18.1559 4.40422C22.0199 8.26344 22.0199 14.5364 18.1606 18.3957Z" fill="black"/>
<path d="M11.165 12.1835C11.598 12.1835 11.9491 11.8324 11.9491 11.3994C11.9491 10.9663 11.598 10.6152 11.165 10.6152C10.7319 10.6152 10.3809 10.9663 10.3809 11.3994C10.3809 11.8324 10.7319 12.1835 11.165 12.1835Z" fill="black"/>
<path d="M15.2089 12.1835C15.642 12.1835 15.9931 11.8324 15.9931 11.3994C15.9931 10.9663 15.642 10.6152 15.2089 10.6152C14.7759 10.6152 14.4248 10.9663 14.4248 11.3994C14.4248 11.8324 14.7759 12.1835 15.2089 12.1835Z" fill="black"/>
<path d="M7.12202 12.1835C7.55508 12.1835 7.90614 11.8324 7.90614 11.3994C7.90614 10.9663 7.55508 10.6152 7.12202 10.6152C6.68896 10.6152 6.33789 10.9663 6.33789 11.3994C6.33789 11.8324 6.68896 12.1835 7.12202 12.1835Z" fill="black"/>
</svg>
