<svg width="17" height="28" viewBox="0 0 17 28" fill="none" xmlns="http://www.w3.org/2000/svg">
<path d="M0.285156 25.1729C0.285156 26.2328 1.08794 27.095 2.07472 27.095H14.267C15.2538 27.095 16.0566 26.2328 16.0566 25.1729V2.15059C16.0566 1.09076 15.2538 0.228516 14.267 0.228516H2.07472C1.08794 0.228516 0.285156 1.09076 0.285156 2.15059V25.1729ZM1.35553 4.4055H14.9862V20.588H1.35553V4.4055ZM1.35553 2.15059C1.35553 1.68096 1.67815 1.29889 2.07472 1.29889H14.267C14.6635 1.29889 14.9862 1.68096 14.9862 2.15059V3.33513H1.35553V2.15059ZM14.9862 25.1729C14.9862 25.6425 14.6635 26.0246 14.267 26.0246H2.07472C1.67815 26.0246 1.35553 25.6425 1.35553 25.1729V21.6584H14.9862V25.1729Z" fill="black"/>
<path d="M8.17106 25.3187C9.00151 25.3187 9.67708 24.6431 9.67708 23.8127C9.67708 22.9822 9.00151 22.3066 8.17106 22.3066C7.34066 22.3066 6.66504 22.9822 6.66504 23.8127C6.66504 24.6431 7.34066 25.3187 8.17106 25.3187ZM8.17106 23.3771C8.41125 23.3771 8.60671 23.5725 8.60671 23.8127C8.60671 24.053 8.41131 24.2484 8.17106 24.2484C7.93081 24.2484 7.73542 24.053 7.73542 23.8127C7.73542 23.5725 7.93087 23.3771 8.17106 23.3771Z" fill="black"/>
<path d="M8.67046 1.83618H7.67191C7.37632 1.83618 7.13672 2.07584 7.13672 2.37137C7.13672 2.6669 7.37632 2.90656 7.67191 2.90656H8.67046C8.96599 2.90656 9.20565 2.6669 9.20565 2.37137C9.20565 2.07584 8.96605 1.83618 8.67046 1.83618Z" fill="black"/>
<path d="M2.90042 9.10498C2.60484 9.10498 2.36523 9.34464 2.36523 9.64017V19.071C2.36523 19.3665 2.60484 19.6062 2.90042 19.6062C3.19601 19.6062 3.43561 19.3665 3.43561 19.071V9.64017C3.43561 9.34458 3.19601 9.10498 2.90042 9.10498Z" fill="black"/>
<path d="M2.90042 5.4978C2.60484 5.4978 2.36523 5.73746 2.36523 6.03299V7.47538C2.36523 7.77091 2.60484 8.01057 2.90042 8.01057C3.19601 8.01057 3.43561 7.77091 3.43561 7.47538V6.03299C3.43561 5.73741 3.19601 5.4978 2.90042 5.4978Z" fill="black"/>
</svg>
