<svg width="32" height="34" viewBox="0 0 32 34" fill="none" xmlns="http://www.w3.org/2000/svg">
<path d="M30.9684 6.45185H22.1357L22.9085 5.7524C22.9653 5.70106 23.0161 5.64359 23.0602 5.581C24.1896 3.9805 23.8201 1.74973 22.2364 0.608213C21.4812 0.0639222 20.5299 -0.127238 19.6264 0.0843672C18.7228 0.295746 17.9513 0.889673 17.5096 1.71372L15.9999 4.53047L14.4902 1.71372C14.0484 0.889559 13.2769 0.295519 12.3733 0.0842536C11.4696 -0.127238 10.5183 0.0638086 9.76338 0.6081C8.17986 1.74961 7.81025 3.98039 8.93953 5.58089C8.98381 5.64359 9.03472 5.70106 9.09124 5.75229L9.86407 6.45173H1.03163C0.461872 6.45173 0 6.91856 0 7.49443V14.1054C0 14.6813 0.461872 15.1481 1.03163 15.1481H1.30493V32.9573C1.30493 33.5332 1.7668 34 2.33656 34H29.6634C30.2332 34 30.6951 33.5332 30.6951 32.9573V15.1481H30.9684C31.5381 15.1481 32 14.6813 32 14.1054V7.49454C32 6.91867 31.538 6.45185 30.9684 6.45185ZM19.3238 2.70701C19.4863 2.40362 19.759 2.19372 20.0917 2.11592C20.1818 2.09479 20.272 2.08446 20.3615 2.08446C20.6022 2.08446 20.8358 2.15987 21.0385 2.30594C21.3569 2.53549 21.5678 2.87647 21.6324 3.26652C21.6914 3.62317 21.6216 3.9813 21.4356 4.28615L19.0425 6.45185H17.3167L19.3238 2.70701ZM10.3674 3.26663C10.4319 2.87681 10.6428 2.53561 10.9614 2.30606C11.2393 2.1057 11.5754 2.03811 11.9082 2.11603C12.2407 2.19372 12.5135 2.40374 12.6761 2.70712L14.6832 6.45185H12.9574L10.5642 4.28615C10.3782 3.98141 10.3084 3.62305 10.3674 3.26663ZM12.1608 31.9147H3.36807V15.1482H12.1608V31.9147ZM17.7757 31.9147H14.2241V15.1482H17.7757V31.9147ZM28.6318 31.9147H19.839V15.1482H28.6318V31.9147ZM29.9367 13.0628H2.06314V8.53724H29.9366L29.9367 13.0628Z" fill="#979797"/>
</svg>
