<svg width="40" height="40" viewBox="0 0 40 40" fill="none" xmlns="http://www.w3.org/2000/svg">
<path fill-rule="evenodd" clip-rule="evenodd" d="M38.9843 39.6874C38.776 39.8957 38.5416 39.9999 38.2812 39.9999C38.0207 39.9999 37.8124 39.8957 37.6562 39.6874L27.5781 29.6093C27.3697 29.4531 27.2656 29.2447 27.2656 28.9843V28.2031C25.8072 29.5572 24.1275 30.6119 22.2265 31.3671C20.3255 32.1223 18.3333 32.4999 16.25 32.4999C13.2812 32.4999 10.5599 31.7708 8.08592 30.3124C5.61197 28.8541 3.64582 26.888 2.18749 24.414C0.729164 21.9401 0 19.2187 0 16.25C0 13.2812 0.729164 10.5599 2.18749 8.08592C3.64582 5.61197 5.61197 3.64582 8.08592 2.18749C10.5599 0.729164 13.2812 0 16.25 0C19.2187 0 21.9401 0.729164 24.414 2.18749C26.888 3.64582 28.8541 5.61197 30.3124 8.08592C31.7708 10.5599 32.4999 13.2812 32.4999 16.25C32.4999 18.3333 32.1223 20.3255 31.3671 22.2265C30.6119 24.1275 29.5572 25.8072 28.2031 27.2656H28.9843C29.2447 27.2656 29.4791 27.3697 29.6874 27.5781L39.7655 37.6562C39.9218 37.8124 39.9999 38.0207 39.9999 38.2812C39.9999 38.5416 39.9218 38.776 39.7655 38.9843L38.9843 39.6874ZM9.33592 28.164C11.4453 29.388 13.75 29.9999 16.25 29.9999C18.75 29.9999 21.0546 29.388 23.164 28.164C25.2734 26.94 26.94 25.2734 28.164 23.164C29.388 21.0546 29.9999 18.75 29.9999 16.25C29.9999 13.75 29.388 11.4453 28.164 9.33592C26.94 7.22655 25.2734 5.55988 23.164 4.33593C21.0546 3.11197 18.75 2.49999 16.25 2.49999C13.75 2.49999 11.4453 3.11197 9.33592 4.33593C7.22655 5.55988 5.55988 7.22655 4.33593 9.33592C3.11197 11.4453 2.49999 13.75 2.49999 16.25C2.49999 18.75 3.11197 21.0546 4.33593 23.164C5.55988 25.2734 7.22655 26.94 9.33592 28.164Z" fill="black"/>
</svg>
