<svg width="26" height="26" viewBox="0 0 26 26" fill="none" xmlns="http://www.w3.org/2000/svg">
<mask id="path-1-inside-1_32_1054" fill="white">
<path d="M12.9993 0C9.55258 0.00388357 6.2482 1.3749 3.81117 3.81221C1.37413 6.24952 0.00349462 9.55405 0 13.0007C0.00388287 16.4472 1.37469 19.7513 3.81169 22.1883C6.24868 24.6253 9.55284 25.9961 12.9993 26C16.4454 25.9957 19.7492 24.6247 22.1859 22.1878C24.6226 19.7508 25.9932 16.4469 25.9971 13.0007C25.9936 9.55431 24.6231 6.24999 22.1864 3.81272C19.7497 1.37545 16.4457 0.00427179 12.9993 0ZM12.9993 24.9731C9.82507 24.9696 6.78189 23.7071 4.5374 21.4626C2.2929 19.2181 1.03041 16.1749 1.02691 13.0007C1.03002 9.82629 2.29234 6.78273 4.53688 4.53792C6.78141 2.2931 9.82482 1.03041 12.9993 1.02691C16.1733 1.03119 19.2161 2.29417 21.4603 4.53886C23.7044 6.78355 24.9667 9.82666 24.9701 13.0007C24.9667 16.1747 23.7044 19.2176 21.4602 21.4621C19.216 23.7065 16.1732 24.9692 12.9993 24.9731Z"/>
</mask>
<path d="M12.9993 0C9.55258 0.00388357 6.2482 1.3749 3.81117 3.81221C1.37413 6.24952 0.00349462 9.55405 0 13.0007C0.00388287 16.4472 1.37469 19.7513 3.81169 22.1883C6.24868 24.6253 9.55284 25.9961 12.9993 26C16.4454 25.9957 19.7492 24.6247 22.1859 22.1878C24.6226 19.7508 25.9932 16.4469 25.9971 13.0007C25.9936 9.55431 24.6231 6.24999 22.1864 3.81272C19.7497 1.37545 16.4457 0.00427179 12.9993 0ZM12.9993 24.9731C9.82507 24.9696 6.78189 23.7071 4.5374 21.4626C2.2929 19.2181 1.03041 16.1749 1.02691 13.0007C1.03002 9.82629 2.29234 6.78273 4.53688 4.53792C6.78141 2.2931 9.82482 1.03041 12.9993 1.02691C16.1733 1.03119 19.2161 2.29417 21.4603 4.53886C23.7044 6.78355 24.9667 9.82666 24.9701 13.0007C24.9667 16.1747 23.7044 19.2176 21.4602 21.4621C19.216 23.7065 16.1732 24.9692 12.9993 24.9731Z" fill="#EA0000"/>
<path d="M0 13.0007L-3.00001 12.9977L-3 13.0041L0 13.0007ZM12.9993 26L12.9959 29L13.003 29L12.9993 26ZM25.9971 13.0007L28.9971 13.0041L28.9971 12.9977L25.9971 13.0007ZM1.02691 13.0007L-1.97309 12.9978L-1.97309 13.004L1.02691 13.0007ZM12.9993 1.02691L13.0033 -1.97309L12.996 -1.97308L12.9993 1.02691ZM24.9701 13.0007L27.9702 13.004L27.9701 12.9974L24.9701 13.0007ZM12.9959 -3C8.75467 -2.99522 4.68855 -1.30816 1.68973 1.69101L5.93261 5.93341C7.80785 4.05795 10.3505 3.00299 13.0026 3L12.9959 -3ZM1.68973 1.69101C-1.3091 4.69017 -2.9957 8.75647 -3 12.9977L3 13.0038C3.00269 10.3516 4.05736 7.80886 5.93261 5.93341L1.68973 1.69101ZM-3 13.0041C-2.99522 17.245 -1.30841 21.3109 1.69037 24.3096L5.93301 20.067C4.05779 18.1918 3.00299 15.6493 3 12.9974L-3 13.0041ZM1.69037 24.3096C4.68914 27.3084 8.75498 28.9952 12.9959 29L13.0026 23C10.3507 22.997 7.80822 21.9422 5.93301 20.067L1.69037 24.3096ZM13.003 29C17.2436 28.9947 21.309 27.3077 24.3073 24.309L20.0645 20.0666C18.1895 21.9418 15.6473 22.9967 12.9955 23L13.003 29ZM24.3073 24.309C27.3057 21.3103 28.9923 17.2447 28.9971 13.0041L22.9971 12.9974C22.9941 15.6491 21.9394 18.1914 20.0645 20.0666L24.3073 24.309ZM28.9971 12.9977C28.9928 8.75679 27.3064 4.69076 24.308 1.69164L20.0649 5.9338C21.9399 7.80923 22.9944 10.3518 22.9971 13.0038L28.9971 12.9977ZM24.308 1.69164C21.3095 -1.30747 17.2439 -2.99474 13.003 -3L12.9955 3C15.6475 3.00328 18.1899 4.05838 20.0649 5.9338L24.308 1.69164ZM13.0026 21.9731C10.6229 21.9705 8.34141 21.024 6.65872 19.3413L2.41607 23.5839C5.22237 26.3902 9.02726 27.9687 12.996 27.9731L13.0026 21.9731ZM6.65872 19.3413C4.97602 17.6586 4.02953 15.3771 4.02691 12.9974L-1.97309 13.004C-1.96872 16.9727 -0.390219 20.7776 2.41607 23.5839L6.65872 19.3413ZM4.02691 13.0037C4.02924 10.6238 4.9756 8.34204 6.65833 6.65911L2.41543 2.41673C-0.390918 5.22341 -1.9692 9.02878 -1.97309 12.9978L4.02691 13.0037ZM6.65833 6.65911C8.34106 4.97617 10.6227 4.02953 13.0026 4.02691L12.996 -1.97308C9.02695 -1.96871 5.22177 -0.389964 2.41543 2.41673L6.65833 6.65911ZM12.9952 4.02691C15.3749 4.03011 17.6562 4.97701 19.3387 6.65992L23.5819 2.4178C20.7761 -0.388665 16.9718 -1.96774 13.0033 -1.97308L12.9952 4.02691ZM19.3387 6.65992C21.0212 8.34283 21.9675 10.6243 21.9702 13.004L27.9701 12.9974C27.9658 9.02898 26.3876 5.22426 23.5819 2.4178L19.3387 6.65992ZM21.9702 12.9974C21.9675 15.3769 21.0212 17.6582 19.3387 19.3409L23.5816 23.5833C26.3875 20.777 27.9658 16.9724 27.9701 13.004L21.9702 12.9974ZM19.3387 19.3409C17.6563 21.0236 15.3751 21.9702 12.9956 21.9731L13.0029 27.9731C16.9713 27.9682 20.7757 26.3895 23.5816 23.5833L19.3387 19.3409Z" fill="#FF0000" mask="url(#path-1-inside-1_32_1054)"/>
<path d="M13.8178 16.7123L14.1714 4.60645H11.7552L12.1073 16.7123H13.8178Z" fill="#EA0000"/>
<path d="M12.9875 18.7265C12.7864 18.7205 12.5862 18.7566 12.3998 18.8323C12.2134 18.9081 12.0448 19.022 11.9049 19.1666C11.7618 19.3148 11.6499 19.4903 11.5758 19.6826C11.5017 19.8748 11.4669 20.08 11.4736 20.2859C11.4629 20.695 11.6118 21.0923 11.8887 21.3935C12.0203 21.5414 12.1826 21.6586 12.3644 21.7369C12.5461 21.8152 12.7428 21.8527 12.9406 21.8468C13.1438 21.8551 13.3464 21.8202 13.5351 21.7443C13.7237 21.6685 13.8941 21.5534 14.035 21.4067C14.316 21.1027 14.4653 20.6997 14.4502 20.2859C14.4653 19.8747 14.3207 19.4736 14.0467 19.1666C13.9127 19.0208 13.7485 18.9058 13.5656 18.8298C13.3827 18.7538 13.1855 18.7186 12.9875 18.7265Z" fill="#EA0000"/>
</svg>
