<svg width="38" height="23" viewBox="0 0 38 23" fill="none" xmlns="http://www.w3.org/2000/svg">
<path d="M36.3089 22.4736C36.8707 22.4736 37.2804 22.3214 37.5379 22.0171C37.7954 21.7128 37.854 21.2797 37.7135 20.7178C37.2921 19.4069 35.3959 17.0191 32.0249 13.5544L31.3928 12.8521C31.1119 12.5243 30.9714 12.2434 30.9714 12.0093C30.9714 11.7752 31.1119 11.4475 31.3928 11.0261C31.4396 10.9793 31.8844 10.3472 32.7272 9.12989C33.7104 7.58484 34.5531 6.22706 35.2554 5.05656C36.2387 3.41786 36.8005 2.24736 36.941 1.54506C37.2219 0.515019 36.8005 0 35.6768 0H31.5333C30.6905 0 30.1052 0.39797 29.7775 1.19391L29.0752 2.59851C28.5134 3.81583 27.9281 4.93951 27.3195 5.96955C26.4299 7.42097 25.5403 8.63829 24.6507 9.6215C24.1825 10.1365 23.808 10.476 23.527 10.6398C23.2461 10.8037 23.0003 10.8856 22.7896 10.8856C22.5789 10.8856 22.4034 10.792 22.2629 10.6047C22.1224 10.4174 22.0522 10.1131 22.0522 9.69173V1.54506C22.0522 0.983219 21.9703 0.585249 21.8064 0.35115C21.6425 0.11705 21.3499 0 20.9285 0H14.3971C14.1162 0 13.8704 0.0936396 13.6597 0.28092C13.449 0.4682 13.3437 0.690594 13.3437 0.948104C13.3437 1.20561 13.5076 1.53335 13.8353 1.93132C14.163 2.32929 14.3971 2.69215 14.5376 3.01989C14.8185 3.58173 14.9824 4.23721 15.0292 4.98633V11.0963C15.0292 11.705 14.9707 12.1147 14.8536 12.3254C14.7366 12.536 14.5376 12.6414 14.2567 12.6414C13.7885 12.6414 13.133 12.1264 12.2902 11.0963C11.4475 10.0663 10.6047 8.73193 9.76196 7.09323C8.82556 5.31407 8.02962 3.48809 7.37415 1.61529C7.18687 1.00663 6.96447 0.585249 6.70696 0.35115C6.44945 0.11705 6.06319 0 5.54817 0H1.4046C0.4682 0 0 0.39797 0 1.19391C0 1.66211 0.16387 2.48146 0.49161 3.65196C1.00663 5.10338 1.68552 6.67185 2.52828 8.35736C3.60514 10.5579 4.93951 12.735 6.53139 14.8888C8.21691 17.3234 10.1833 19.1962 12.4307 20.5071C14.6781 21.8181 16.902 22.4736 19.1025 22.4736C20.3667 22.4736 21.2094 22.3331 21.6308 22.0522C21.9586 21.8181 22.099 21.4201 22.0522 20.8583L22.0525 18.8129C22.0554 17.8136 22.0787 17.1611 22.1224 16.8552C22.1224 16.387 22.2044 16.0827 22.3682 15.9422C22.5321 15.8017 22.8013 15.7315 23.1759 15.7315C24.0655 15.7315 25.4467 16.6211 27.3195 18.4002C27.8813 18.9621 28.5251 19.6527 29.2508 20.472C29.9765 21.2914 30.4798 21.7947 30.7607 21.982C31.1821 22.3097 31.6503 22.4736 32.1653 22.4736H36.3089Z" fill="black"/>
</svg>
