<svg width="191" height="40" viewBox="0 0 191 40" fill="none" xmlns="http://www.w3.org/2000/svg">
<path d="M141.849 0L127 38.3742L130.504 39.944L143.17 7.15425H143.83L156.369 40L160 38.3742L145.15 0H141.849Z" fill="#493C8C"/>
<path fill-rule="evenodd" clip-rule="evenodd" d="M41.1395 0C34.4349 0 29 5.19916 29 11.6126V28.3868C29 34.8008 34.4349 40 41.1395 40H45.8605C52.5651 40 58 34.8008 58 28.3868V11.6126C58 5.19916 52.5651 0 45.8605 0H41.1395ZM41.814 3.87108C37.3446 3.87108 33.7209 7.33696 33.7209 11.6126V28.3868C33.7209 32.663 37.3446 36.1289 41.814 36.1289H45.186C49.6554 36.1289 53.2791 32.663 53.2791 28.3868V11.6126C53.2791 7.33696 49.6554 3.87108 45.186 3.87108H41.814Z" fill="#493C8C"/>
<path fill-rule="evenodd" clip-rule="evenodd" d="M75.3024 0C69.0603 0 64 5.19916 64 11.6126V28.3868C64 34.8008 69.0603 40 75.3024 40H79.6979C85.9399 40 91 34.8008 91 28.3868V11.6126C91 5.19916 85.9399 0 79.6979 0H75.3024ZM75.9299 3.87108C71.7689 3.87108 68.3951 7.33696 68.3951 11.6126V28.3868C68.3951 32.663 71.7689 36.1289 75.9299 36.1289H79.0698C83.2313 36.1289 86.6045 32.663 86.6045 28.3868V11.6126C86.6045 7.33696 83.2313 3.87108 79.0698 3.87108H75.9299Z" fill="#493C8C"/>
<path fill-rule="evenodd" clip-rule="evenodd" d="M122 0H108.736C102.458 0 98 5.19916 98 11.6126V28.3868C98 34.8008 102.458 40 108.736 40H122V35.484H108.736C105.579 35.484 102.421 32.9035 102.421 28.3868V11.6126C102.421 7.33696 105.895 4.19321 108.736 4.19321H122V0Z" fill="#493C8C"/>
<path d="M8.80253 0H22.3993V4.22733H8.80253C3.74623 5.20297 3.11168 13.3336 8.17096 15.2848C14.8118 18.5365 10.4838 16.3793 18.2889 20.4878C28.7911 26.0162 22.7833 40 16.3917 40H0.332719V35.4472H15.5105C19.305 35.4472 21.7676 27.3173 17.9727 25.366C17.3402 25.0406 14.9456 23.4147 5.14231 18.5365C-4.09291 13.6583 0.332856 0 8.80253 0Z" fill="#493C8C"/>
<path d="M175.802 0H189.399V4.22733H175.802C170.746 5.20297 170.111 13.3336 175.171 15.2848C181.812 18.5365 177.484 16.3793 185.289 20.4878C195.791 26.0162 189.783 40 183.392 40H167.333V35.4472H182.511C186.305 35.4472 188.768 27.3173 184.973 25.366C184.34 25.0406 181.946 23.4147 172.142 18.5365C162.907 13.6583 167.333 0 175.802 0Z" fill="#493C8C"/>
</svg>
