<svg width="222" height="64" viewBox="0 0 222 64" fill="none" xmlns="http://www.w3.org/2000/svg">
<rect x="8.00391" y="1.26447" width="207.368" height="59.4287" fill="black"/>
<path d="M127.289 37.8484C125.167 37.8484 123.383 39.6527 123.383 42.1233C123.383 44.5632 125.167 46.3469 127.289 46.3469C129.39 46.3469 131.03 44.5632 131.03 42.1233C131.03 39.6527 129.39 37.8484 127.289 37.8484Z" fill="white"/>
<path d="M167.567 30.939H163.189V38.0022H167.567C169.863 38.0022 171.175 36.0647 171.175 34.4655C171.175 32.8457 169.863 30.939 167.567 30.939Z" fill="white"/>
<path d="M147.156 37.7869C145.588 37.7869 143.414 39.1709 143.486 41.8773L149.75 39.2734C149.411 38.402 148.376 37.7869 147.156 37.7869Z" fill="white"/>
<path d="M96.6163 37.8484C94.4942 37.8484 92.6592 39.5707 92.6592 42.1028C92.6592 44.6042 94.4942 46.3572 96.6163 46.3572C98.7383 46.3572 100.573 44.6042 100.573 42.1028C100.573 39.5707 98.7383 37.8484 96.6163 37.8484Z" fill="white"/>
<path d="M111.974 37.8484C109.852 37.8484 108.017 39.5707 108.017 42.1028C108.017 44.6042 109.852 46.3572 111.974 46.3572C114.096 46.3572 115.931 44.6042 115.931 42.1028C115.931 39.5707 114.096 37.8484 111.974 37.8484Z" fill="white"/>
<path d="M214.129 0H7.82829C3.65594 0 0.262695 3.39324 0.262695 7.56559V56.4344C0.262695 60.617 3.65594 64 7.82829 64H214.129C218.312 64 221.695 60.6068 221.695 56.4344V7.56559C221.695 3.39324 218.312 0 214.129 0ZM124.88 10.7846H126.171L130.549 18.0324V10.7846H131.861V20.4825H130.61L126.192 13.1732V20.4825H124.88V10.7846ZM117.939 10.6718C120.718 10.6718 122.87 12.8964 122.87 15.654C122.87 18.4014 120.718 20.626 117.939 20.626C115.182 20.626 113.039 18.4014 113.039 15.654C113.039 12.8964 115.182 10.6718 117.939 10.6718ZM98.4719 10.7846H99.7841V20.4825H98.4719V10.7846ZM79.2606 10.7846H85.0014V12.0045H80.5625V15.1004H84.4376V16.3306H80.5625V19.2625H85.1347V20.4825H79.2504V10.7846H79.2606ZM72.8842 10.6718C74.1656 10.6718 75.324 11.1639 76.1647 11.9532L75.2215 12.8246C74.6064 12.271 73.7863 11.9225 72.8842 11.9225C70.8544 11.9225 69.2962 13.5935 69.2962 15.654C69.2962 17.7043 70.8544 19.365 72.8842 19.365C74.6269 19.365 75.8981 18.3501 75.9801 16.7509H73.2225V15.613H77.4768C77.4768 19.0165 75.6623 20.626 72.8842 20.626C70.1265 20.626 67.984 18.4014 67.984 15.654C67.984 12.8964 70.1265 10.6718 72.8842 10.6718ZM20.2531 11.5637L43.893 24.9931L37.209 31.5028L17.4647 11.2254C18.213 10.8768 19.1869 10.9486 20.2531 11.5637ZM16.3063 51.8417C16.1525 51.4317 16.0705 50.9601 16.0705 50.4065V13.9728C16.0705 13.0809 16.296 12.3735 16.6753 11.8712L36.4709 32.2102L16.3063 51.8417ZM16.9624 52.8361L16.8496 52.7439L37.1885 32.9483L43.6162 39.5502L20.2531 52.8259C18.9204 53.5845 17.7312 53.5332 16.9624 52.8361ZM52.3812 34.568L44.5388 39.0274L37.9266 32.2307L44.8259 25.5159L52.3915 29.8113C54.6878 31.1235 54.6878 33.2661 52.3812 34.568ZM85.9446 46.0497C84.0275 48.0384 81.5877 49.1046 78.3482 49.1046C72.3409 49.1046 67.2971 44.2146 67.2971 38.2175C67.2971 32.2102 72.3409 27.3304 78.3482 27.3304C81.6697 27.3304 84.0378 28.6324 85.8113 30.3341L83.7097 32.4357C82.4386 31.2363 80.7061 30.3136 78.3482 30.3136C73.9606 30.3136 70.5366 33.8504 70.5366 38.2278C70.5366 42.6154 73.9606 46.1419 78.3482 46.1419C81.1879 46.1419 82.8076 45.004 83.843 43.9686C84.6939 43.1177 85.2475 41.8978 85.4627 40.2268H78.3482V37.2539H88.3639C88.4664 37.787 88.5279 38.4226 88.5279 39.1094C88.5177 41.3237 87.9129 44.0916 85.9446 46.0497ZM86.2829 12.025V10.7846H93.4897V12.025H90.5475V20.4825H89.225V12.025H86.2829ZM96.6164 49.1046C92.7413 49.1046 89.5736 46.1317 89.5736 42.0926C89.5736 38.033 92.731 35.0806 96.6164 35.0806C100.491 35.0806 103.659 38.033 103.659 42.0926C103.659 46.1317 100.491 49.1046 96.6164 49.1046ZM101.496 12.025V10.7846H108.703V12.025H105.761V20.4825H104.438V12.025H101.496ZM111.973 49.1046C108.098 49.1046 104.93 46.1317 104.93 42.0926C104.93 38.033 108.088 35.0806 111.973 35.0806C115.848 35.0806 119.016 38.033 119.016 42.0926C119.006 46.1317 115.848 49.1046 111.973 49.1046ZM133.747 48.0999C133.747 53.2769 130.692 55.4093 127.084 55.4093C123.68 55.4093 121.64 53.1232 120.871 51.2677L123.557 50.1502C124.039 51.2882 125.208 52.6516 127.094 52.6516C129.401 52.6516 130.836 51.2164 130.836 48.5305V47.5259H130.733C130.046 48.3767 128.714 49.1148 127.043 49.1148C123.537 49.1148 120.318 46.0599 120.318 42.1336C120.318 38.1765 123.537 35.0908 127.043 35.0908C128.714 35.0908 130.046 35.8392 130.733 36.6593H130.836V35.5214H133.757V48.0999H133.747ZM138.945 48.6843H135.859V28.0686H138.945V48.6843ZM147.392 46.3469C148.96 46.3469 150.047 45.5781 150.847 44.4094L153.235 45.9984C152.466 47.1363 150.601 49.1046 147.392 49.1046C143.404 49.1046 140.431 46.0189 140.431 42.0926C140.431 37.9202 143.435 35.0806 147.043 35.0806C150.683 35.0806 152.466 37.9715 153.051 39.54L153.369 40.3396L143.988 44.2146C144.716 45.6293 145.823 46.3469 147.392 46.3469ZM167.485 40.8727H163.189V48.6843H160.114V28.0686H167.485C170.899 28.0686 174.251 30.5392 174.251 34.4655C174.251 38.4021 170.899 40.8727 167.485 40.8727ZM179.018 48.6843H175.942V28.0686H179.018V48.6843ZM192.837 48.6433H189.864V47.0543H189.761C189.044 48.141 187.906 49.0738 185.835 49.0738C183.129 49.0738 180.719 47.3003 180.719 44.5427C180.719 41.5185 183.713 39.8988 186.655 39.8988C188.111 39.8988 189.31 40.3806 189.864 40.6984V40.4831C189.833 38.7814 188.224 37.828 186.624 37.828C185.486 37.828 184.4 38.197 183.815 39.3349L181.089 38.197C182.042 36.0237 184.349 35.0396 186.573 35.0396C190.1 35.0396 192.826 37.0796 192.826 40.7394V48.6433H192.837ZM198.619 54.9377H195.41L198.537 47.9872L193.052 35.5009H196.363L200.023 44.4402H200.126L203.652 35.5009H207.076L198.619 54.9377Z" fill="white"/>
<path d="M117.94 19.3548C119.98 19.3548 121.548 17.7043 121.548 15.654C121.548 13.5935 119.99 11.9327 117.94 11.9327C115.91 11.9327 114.352 13.5935 114.352 15.654C114.352 17.7146 115.91 19.3548 117.94 19.3548Z" fill="white"/>
<path d="M183.795 44.5939C183.795 45.8446 185.199 46.3469 186.204 46.3469C187.978 46.3469 189.628 44.9937 189.864 43.0869C189.044 42.6871 188.408 42.4001 187.055 42.4001C185.548 42.3898 183.795 43.0049 183.795 44.5939Z" fill="white"/>
</svg>
