<svg width="85" height="140" viewBox="0 0 85 140" fill="none" xmlns="http://www.w3.org/2000/svg">
<path fill-rule="evenodd" clip-rule="evenodd" d="M24.0343 101.729C28.1697 107.62 33.015 114.522 38.6836 122.74C40.7692 125.753 45.2306 125.753 47.3164 122.74C52.985 114.522 57.8303 107.62 61.9657 101.729C81.0171 74.588 85 68.9139 85 55C85 31.804 66.196 13 43 13C19.804 13 1 31.804 1 55C1 68.9139 4.98293 74.588 24.0343 101.729ZM62 55C62 64.9412 53.9412 73 44 73C34.0588 73 26 64.9412 26 55C26 45.0588 34.0588 37 44 37C53.9412 37 62 45.0588 62 55Z" fill="black"/>
</svg>
